%TF.GenerationSoftware,KiCad,Pcbnew,(5.1.9)-1*%
%TF.CreationDate,2021-09-05T14:49:22+02:00*%
%TF.ProjectId,MQ172,4d513137-322e-46b6-9963-61645f706362,rev?*%
%TF.SameCoordinates,Original*%
%TF.FileFunction,Copper,L1,Top*%
%TF.FilePolarity,Positive*%
%FSLAX46Y46*%
G04 Gerber Fmt 4.6, Leading zero omitted, Abs format (unit mm)*
G04 Created by KiCad (PCBNEW (5.1.9)-1) date 2021-09-05 14:49:22*
%MOMM*%
%LPD*%
G01*
G04 APERTURE LIST*
%TA.AperFunction,SMDPad,CuDef*%
%ADD10R,0.550000X2.500000*%
%TD*%
%TA.AperFunction,SMDPad,CuDef*%
%ADD11R,2.600000X3.000000*%
%TD*%
%TA.AperFunction,WasherPad*%
%ADD12C,1.000000*%
%TD*%
%TA.AperFunction,ComponentPad*%
%ADD13O,1.700000X1.700000*%
%TD*%
%TA.AperFunction,ComponentPad*%
%ADD14R,1.700000X1.700000*%
%TD*%
%TA.AperFunction,Conductor*%
%ADD15C,0.500000*%
%TD*%
%TA.AperFunction,Conductor*%
%ADD16C,0.254000*%
%TD*%
%TA.AperFunction,Conductor*%
%ADD17C,0.100000*%
%TD*%
G04 APERTURE END LIST*
D10*
%TO.P,J2,1*%
%TO.N,Net-(J1-Pad1)*%
X173449000Y-110213000D03*
%TO.P,J2,3*%
%TO.N,Net-(J1-Pad3)*%
X175049000Y-110213000D03*
%TO.P,J2,2*%
%TO.N,Net-(J1-Pad2)*%
X174249000Y-110213000D03*
D11*
%TO.P,J2,0*%
%TO.N,Net-(J1-Pad4)*%
X170649000Y-113963000D03*
X177849000Y-113963000D03*
D12*
%TO.P,J2,*%
%TO.N,*%
X175599000Y-113963000D03*
X172899000Y-113963000D03*
%TD*%
D13*
%TO.P,J1,4*%
%TO.N,Net-(J1-Pad4)*%
X178308000Y-105918000D03*
%TO.P,J1,3*%
%TO.N,Net-(J1-Pad3)*%
X175768000Y-105918000D03*
%TO.P,J1,2*%
%TO.N,Net-(J1-Pad2)*%
X173228000Y-105918000D03*
D14*
%TO.P,J1,1*%
%TO.N,Net-(J1-Pad1)*%
X170688000Y-105918000D03*
%TD*%
D15*
%TO.N,Net-(J1-Pad3)*%
X175049000Y-110213000D02*
X175049000Y-108415000D01*
X175768000Y-107696000D02*
X175768000Y-105918000D01*
X175049000Y-108415000D02*
X175768000Y-107696000D01*
%TO.N,Net-(J1-Pad2)*%
X174249000Y-108463000D02*
X174249000Y-110213000D01*
X173228000Y-107442000D02*
X174249000Y-108463000D01*
X173228000Y-105918000D02*
X173228000Y-107442000D01*
%TO.N,Net-(J1-Pad1)*%
X173449000Y-110213000D02*
X171427000Y-110213000D01*
X170688000Y-109474000D02*
X170688000Y-105918000D01*
X171427000Y-110213000D02*
X170688000Y-109474000D01*
%TD*%
D16*
%TO.N,Net-(J1-Pad4)*%
X179959000Y-116434000D02*
X168529000Y-116434000D01*
X168529000Y-115463000D01*
X168710928Y-115463000D01*
X168723188Y-115587482D01*
X168759498Y-115707180D01*
X168818463Y-115817494D01*
X168897815Y-115914185D01*
X168994506Y-115993537D01*
X169104820Y-116052502D01*
X169224518Y-116088812D01*
X169349000Y-116101072D01*
X170363250Y-116098000D01*
X170522000Y-115939250D01*
X170522000Y-114090000D01*
X168872750Y-114090000D01*
X168714000Y-114248750D01*
X168710928Y-115463000D01*
X168529000Y-115463000D01*
X168529000Y-111887000D01*
X169079560Y-111887000D01*
X168994506Y-111932463D01*
X168897815Y-112011815D01*
X168818463Y-112108506D01*
X168759498Y-112218820D01*
X168723188Y-112338518D01*
X168710928Y-112463000D01*
X168714000Y-113677250D01*
X168872750Y-113836000D01*
X170522000Y-113836000D01*
X170522000Y-113816000D01*
X170776000Y-113816000D01*
X170776000Y-113836000D01*
X170796000Y-113836000D01*
X170796000Y-114090000D01*
X170776000Y-114090000D01*
X170776000Y-115939250D01*
X170934750Y-116098000D01*
X171949000Y-116101072D01*
X172073482Y-116088812D01*
X172193180Y-116052502D01*
X172303494Y-115993537D01*
X172400185Y-115914185D01*
X172479537Y-115817494D01*
X172538502Y-115707180D01*
X172574812Y-115587482D01*
X172587072Y-115463000D01*
X172586047Y-115057986D01*
X172787212Y-115098000D01*
X173010788Y-115098000D01*
X173230067Y-115054383D01*
X173436624Y-114968824D01*
X173622520Y-114844612D01*
X173780612Y-114686520D01*
X173904824Y-114500624D01*
X173990383Y-114294067D01*
X174034000Y-114074788D01*
X174034000Y-113851212D01*
X174464000Y-113851212D01*
X174464000Y-114074788D01*
X174507617Y-114294067D01*
X174593176Y-114500624D01*
X174717388Y-114686520D01*
X174875480Y-114844612D01*
X175061376Y-114968824D01*
X175267933Y-115054383D01*
X175487212Y-115098000D01*
X175710788Y-115098000D01*
X175911953Y-115057986D01*
X175910928Y-115463000D01*
X175923188Y-115587482D01*
X175959498Y-115707180D01*
X176018463Y-115817494D01*
X176097815Y-115914185D01*
X176194506Y-115993537D01*
X176304820Y-116052502D01*
X176424518Y-116088812D01*
X176549000Y-116101072D01*
X177563250Y-116098000D01*
X177722000Y-115939250D01*
X177722000Y-114090000D01*
X177976000Y-114090000D01*
X177976000Y-115939250D01*
X178134750Y-116098000D01*
X179149000Y-116101072D01*
X179273482Y-116088812D01*
X179393180Y-116052502D01*
X179503494Y-115993537D01*
X179600185Y-115914185D01*
X179679537Y-115817494D01*
X179738502Y-115707180D01*
X179774812Y-115587482D01*
X179787072Y-115463000D01*
X179784000Y-114248750D01*
X179625250Y-114090000D01*
X177976000Y-114090000D01*
X177722000Y-114090000D01*
X177702000Y-114090000D01*
X177702000Y-113836000D01*
X177722000Y-113836000D01*
X177722000Y-111986750D01*
X177976000Y-111986750D01*
X177976000Y-113836000D01*
X179625250Y-113836000D01*
X179784000Y-113677250D01*
X179787072Y-112463000D01*
X179774812Y-112338518D01*
X179738502Y-112218820D01*
X179679537Y-112108506D01*
X179600185Y-112011815D01*
X179503494Y-111932463D01*
X179393180Y-111873498D01*
X179273482Y-111837188D01*
X179149000Y-111824928D01*
X178134750Y-111828000D01*
X177976000Y-111986750D01*
X177722000Y-111986750D01*
X177563250Y-111828000D01*
X176549000Y-111824928D01*
X176424518Y-111837188D01*
X176304820Y-111873498D01*
X176194506Y-111932463D01*
X176097815Y-112011815D01*
X176018463Y-112108506D01*
X175959498Y-112218820D01*
X175923188Y-112338518D01*
X175910928Y-112463000D01*
X175911953Y-112868014D01*
X175710788Y-112828000D01*
X175487212Y-112828000D01*
X175267933Y-112871617D01*
X175061376Y-112957176D01*
X174875480Y-113081388D01*
X174717388Y-113239480D01*
X174593176Y-113425376D01*
X174507617Y-113631933D01*
X174464000Y-113851212D01*
X174034000Y-113851212D01*
X173990383Y-113631933D01*
X173904824Y-113425376D01*
X173780612Y-113239480D01*
X173622520Y-113081388D01*
X173436624Y-112957176D01*
X173230067Y-112871617D01*
X173010788Y-112828000D01*
X172787212Y-112828000D01*
X172586047Y-112868014D01*
X172587072Y-112463000D01*
X172574812Y-112338518D01*
X172538502Y-112218820D01*
X172479537Y-112108506D01*
X172400185Y-112011815D01*
X172303494Y-111932463D01*
X172218440Y-111887000D01*
X172700505Y-111887000D01*
X172722815Y-111914185D01*
X172819506Y-111993537D01*
X172929820Y-112052502D01*
X173049518Y-112088812D01*
X173174000Y-112101072D01*
X173724000Y-112101072D01*
X173848482Y-112088812D01*
X173849000Y-112088655D01*
X173849518Y-112088812D01*
X173974000Y-112101072D01*
X174524000Y-112101072D01*
X174648482Y-112088812D01*
X174649000Y-112088655D01*
X174649518Y-112088812D01*
X174774000Y-112101072D01*
X175324000Y-112101072D01*
X175448482Y-112088812D01*
X175568180Y-112052502D01*
X175678494Y-111993537D01*
X175775185Y-111914185D01*
X175801725Y-111881845D01*
X175816601Y-111877333D01*
X175838557Y-111865597D01*
X175857803Y-111849803D01*
X175873597Y-111830557D01*
X175885333Y-111808601D01*
X175892560Y-111784776D01*
X175895000Y-111760000D01*
X175895000Y-111741794D01*
X175913502Y-111707180D01*
X175949812Y-111587482D01*
X175962072Y-111463000D01*
X175962072Y-108963000D01*
X175949812Y-108838518D01*
X175934000Y-108786393D01*
X175934000Y-108781578D01*
X176363050Y-108352529D01*
X176396817Y-108324817D01*
X176425793Y-108289511D01*
X176507411Y-108190059D01*
X176550889Y-108108717D01*
X177127803Y-107531803D01*
X177143597Y-107512557D01*
X177155333Y-107490601D01*
X177162560Y-107466776D01*
X177165000Y-107442000D01*
X177165000Y-106857242D01*
X177307731Y-107015588D01*
X177541080Y-107189641D01*
X177803901Y-107314825D01*
X177951110Y-107359476D01*
X178181000Y-107238155D01*
X178181000Y-106045000D01*
X178435000Y-106045000D01*
X178435000Y-107238155D01*
X178664890Y-107359476D01*
X178812099Y-107314825D01*
X179074920Y-107189641D01*
X179308269Y-107015588D01*
X179503178Y-106799355D01*
X179652157Y-106549252D01*
X179749481Y-106274891D01*
X179628814Y-106045000D01*
X178435000Y-106045000D01*
X178181000Y-106045000D01*
X178161000Y-106045000D01*
X178161000Y-105791000D01*
X178181000Y-105791000D01*
X178181000Y-105771000D01*
X178435000Y-105771000D01*
X178435000Y-105791000D01*
X179628814Y-105791000D01*
X179749481Y-105561109D01*
X179652157Y-105286748D01*
X179649924Y-105283000D01*
X179959000Y-105283000D01*
X179959000Y-116434000D01*
%TA.AperFunction,Conductor*%
D17*
G36*
X179959000Y-116434000D02*
G01*
X168529000Y-116434000D01*
X168529000Y-115463000D01*
X168710928Y-115463000D01*
X168723188Y-115587482D01*
X168759498Y-115707180D01*
X168818463Y-115817494D01*
X168897815Y-115914185D01*
X168994506Y-115993537D01*
X169104820Y-116052502D01*
X169224518Y-116088812D01*
X169349000Y-116101072D01*
X170363250Y-116098000D01*
X170522000Y-115939250D01*
X170522000Y-114090000D01*
X168872750Y-114090000D01*
X168714000Y-114248750D01*
X168710928Y-115463000D01*
X168529000Y-115463000D01*
X168529000Y-111887000D01*
X169079560Y-111887000D01*
X168994506Y-111932463D01*
X168897815Y-112011815D01*
X168818463Y-112108506D01*
X168759498Y-112218820D01*
X168723188Y-112338518D01*
X168710928Y-112463000D01*
X168714000Y-113677250D01*
X168872750Y-113836000D01*
X170522000Y-113836000D01*
X170522000Y-113816000D01*
X170776000Y-113816000D01*
X170776000Y-113836000D01*
X170796000Y-113836000D01*
X170796000Y-114090000D01*
X170776000Y-114090000D01*
X170776000Y-115939250D01*
X170934750Y-116098000D01*
X171949000Y-116101072D01*
X172073482Y-116088812D01*
X172193180Y-116052502D01*
X172303494Y-115993537D01*
X172400185Y-115914185D01*
X172479537Y-115817494D01*
X172538502Y-115707180D01*
X172574812Y-115587482D01*
X172587072Y-115463000D01*
X172586047Y-115057986D01*
X172787212Y-115098000D01*
X173010788Y-115098000D01*
X173230067Y-115054383D01*
X173436624Y-114968824D01*
X173622520Y-114844612D01*
X173780612Y-114686520D01*
X173904824Y-114500624D01*
X173990383Y-114294067D01*
X174034000Y-114074788D01*
X174034000Y-113851212D01*
X174464000Y-113851212D01*
X174464000Y-114074788D01*
X174507617Y-114294067D01*
X174593176Y-114500624D01*
X174717388Y-114686520D01*
X174875480Y-114844612D01*
X175061376Y-114968824D01*
X175267933Y-115054383D01*
X175487212Y-115098000D01*
X175710788Y-115098000D01*
X175911953Y-115057986D01*
X175910928Y-115463000D01*
X175923188Y-115587482D01*
X175959498Y-115707180D01*
X176018463Y-115817494D01*
X176097815Y-115914185D01*
X176194506Y-115993537D01*
X176304820Y-116052502D01*
X176424518Y-116088812D01*
X176549000Y-116101072D01*
X177563250Y-116098000D01*
X177722000Y-115939250D01*
X177722000Y-114090000D01*
X177976000Y-114090000D01*
X177976000Y-115939250D01*
X178134750Y-116098000D01*
X179149000Y-116101072D01*
X179273482Y-116088812D01*
X179393180Y-116052502D01*
X179503494Y-115993537D01*
X179600185Y-115914185D01*
X179679537Y-115817494D01*
X179738502Y-115707180D01*
X179774812Y-115587482D01*
X179787072Y-115463000D01*
X179784000Y-114248750D01*
X179625250Y-114090000D01*
X177976000Y-114090000D01*
X177722000Y-114090000D01*
X177702000Y-114090000D01*
X177702000Y-113836000D01*
X177722000Y-113836000D01*
X177722000Y-111986750D01*
X177976000Y-111986750D01*
X177976000Y-113836000D01*
X179625250Y-113836000D01*
X179784000Y-113677250D01*
X179787072Y-112463000D01*
X179774812Y-112338518D01*
X179738502Y-112218820D01*
X179679537Y-112108506D01*
X179600185Y-112011815D01*
X179503494Y-111932463D01*
X179393180Y-111873498D01*
X179273482Y-111837188D01*
X179149000Y-111824928D01*
X178134750Y-111828000D01*
X177976000Y-111986750D01*
X177722000Y-111986750D01*
X177563250Y-111828000D01*
X176549000Y-111824928D01*
X176424518Y-111837188D01*
X176304820Y-111873498D01*
X176194506Y-111932463D01*
X176097815Y-112011815D01*
X176018463Y-112108506D01*
X175959498Y-112218820D01*
X175923188Y-112338518D01*
X175910928Y-112463000D01*
X175911953Y-112868014D01*
X175710788Y-112828000D01*
X175487212Y-112828000D01*
X175267933Y-112871617D01*
X175061376Y-112957176D01*
X174875480Y-113081388D01*
X174717388Y-113239480D01*
X174593176Y-113425376D01*
X174507617Y-113631933D01*
X174464000Y-113851212D01*
X174034000Y-113851212D01*
X173990383Y-113631933D01*
X173904824Y-113425376D01*
X173780612Y-113239480D01*
X173622520Y-113081388D01*
X173436624Y-112957176D01*
X173230067Y-112871617D01*
X173010788Y-112828000D01*
X172787212Y-112828000D01*
X172586047Y-112868014D01*
X172587072Y-112463000D01*
X172574812Y-112338518D01*
X172538502Y-112218820D01*
X172479537Y-112108506D01*
X172400185Y-112011815D01*
X172303494Y-111932463D01*
X172218440Y-111887000D01*
X172700505Y-111887000D01*
X172722815Y-111914185D01*
X172819506Y-111993537D01*
X172929820Y-112052502D01*
X173049518Y-112088812D01*
X173174000Y-112101072D01*
X173724000Y-112101072D01*
X173848482Y-112088812D01*
X173849000Y-112088655D01*
X173849518Y-112088812D01*
X173974000Y-112101072D01*
X174524000Y-112101072D01*
X174648482Y-112088812D01*
X174649000Y-112088655D01*
X174649518Y-112088812D01*
X174774000Y-112101072D01*
X175324000Y-112101072D01*
X175448482Y-112088812D01*
X175568180Y-112052502D01*
X175678494Y-111993537D01*
X175775185Y-111914185D01*
X175801725Y-111881845D01*
X175816601Y-111877333D01*
X175838557Y-111865597D01*
X175857803Y-111849803D01*
X175873597Y-111830557D01*
X175885333Y-111808601D01*
X175892560Y-111784776D01*
X175895000Y-111760000D01*
X175895000Y-111741794D01*
X175913502Y-111707180D01*
X175949812Y-111587482D01*
X175962072Y-111463000D01*
X175962072Y-108963000D01*
X175949812Y-108838518D01*
X175934000Y-108786393D01*
X175934000Y-108781578D01*
X176363050Y-108352529D01*
X176396817Y-108324817D01*
X176425793Y-108289511D01*
X176507411Y-108190059D01*
X176550889Y-108108717D01*
X177127803Y-107531803D01*
X177143597Y-107512557D01*
X177155333Y-107490601D01*
X177162560Y-107466776D01*
X177165000Y-107442000D01*
X177165000Y-106857242D01*
X177307731Y-107015588D01*
X177541080Y-107189641D01*
X177803901Y-107314825D01*
X177951110Y-107359476D01*
X178181000Y-107238155D01*
X178181000Y-106045000D01*
X178435000Y-106045000D01*
X178435000Y-107238155D01*
X178664890Y-107359476D01*
X178812099Y-107314825D01*
X179074920Y-107189641D01*
X179308269Y-107015588D01*
X179503178Y-106799355D01*
X179652157Y-106549252D01*
X179749481Y-106274891D01*
X179628814Y-106045000D01*
X178435000Y-106045000D01*
X178181000Y-106045000D01*
X178161000Y-106045000D01*
X178161000Y-105791000D01*
X178181000Y-105791000D01*
X178181000Y-105771000D01*
X178435000Y-105771000D01*
X178435000Y-105791000D01*
X179628814Y-105791000D01*
X179749481Y-105561109D01*
X179652157Y-105286748D01*
X179649924Y-105283000D01*
X179959000Y-105283000D01*
X179959000Y-116434000D01*
G37*
%TD.AperFunction*%
%TD*%
M02*
