%TF.GenerationSoftware,KiCad,Pcbnew,(5.1.9)-1*%
%TF.CreationDate,2021-09-05T14:58:14+02:00*%
%TF.ProjectId,SOIC-16,534f4943-2d31-4362-9e6b-696361645f70,rev?*%
%TF.SameCoordinates,Original*%
%TF.FileFunction,Copper,L1,Top*%
%TF.FilePolarity,Positive*%
%FSLAX46Y46*%
G04 Gerber Fmt 4.6, Leading zero omitted, Abs format (unit mm)*
G04 Created by KiCad (PCBNEW (5.1.9)-1) date 2021-09-05 14:58:14*
%MOMM*%
%LPD*%
G01*
G04 APERTURE LIST*
%TA.AperFunction,ComponentPad*%
%ADD10O,1.700000X1.700000*%
%TD*%
%TA.AperFunction,ComponentPad*%
%ADD11R,1.700000X1.700000*%
%TD*%
%TA.AperFunction,Conductor*%
%ADD12C,0.500000*%
%TD*%
G04 APERTURE END LIST*
%TO.P,U1,16*%
%TO.N,Net-(J2-Pad1)*%
%TA.AperFunction,SMDPad,CuDef*%
G36*
G01*
X147804000Y-90701000D02*
X147804000Y-90401000D01*
G75*
G02*
X147954000Y-90251000I150000J0D01*
G01*
X149604000Y-90251000D01*
G75*
G02*
X149754000Y-90401000I0J-150000D01*
G01*
X149754000Y-90701000D01*
G75*
G02*
X149604000Y-90851000I-150000J0D01*
G01*
X147954000Y-90851000D01*
G75*
G02*
X147804000Y-90701000I0J150000D01*
G01*
G37*
%TD.AperFunction*%
%TO.P,U1,15*%
%TO.N,Net-(J2-Pad2)*%
%TA.AperFunction,SMDPad,CuDef*%
G36*
G01*
X147804000Y-91971000D02*
X147804000Y-91671000D01*
G75*
G02*
X147954000Y-91521000I150000J0D01*
G01*
X149604000Y-91521000D01*
G75*
G02*
X149754000Y-91671000I0J-150000D01*
G01*
X149754000Y-91971000D01*
G75*
G02*
X149604000Y-92121000I-150000J0D01*
G01*
X147954000Y-92121000D01*
G75*
G02*
X147804000Y-91971000I0J150000D01*
G01*
G37*
%TD.AperFunction*%
%TO.P,U1,14*%
%TO.N,Net-(J2-Pad3)*%
%TA.AperFunction,SMDPad,CuDef*%
G36*
G01*
X147804000Y-93241000D02*
X147804000Y-92941000D01*
G75*
G02*
X147954000Y-92791000I150000J0D01*
G01*
X149604000Y-92791000D01*
G75*
G02*
X149754000Y-92941000I0J-150000D01*
G01*
X149754000Y-93241000D01*
G75*
G02*
X149604000Y-93391000I-150000J0D01*
G01*
X147954000Y-93391000D01*
G75*
G02*
X147804000Y-93241000I0J150000D01*
G01*
G37*
%TD.AperFunction*%
%TO.P,U1,13*%
%TO.N,Net-(J2-Pad4)*%
%TA.AperFunction,SMDPad,CuDef*%
G36*
G01*
X147804000Y-94511000D02*
X147804000Y-94211000D01*
G75*
G02*
X147954000Y-94061000I150000J0D01*
G01*
X149604000Y-94061000D01*
G75*
G02*
X149754000Y-94211000I0J-150000D01*
G01*
X149754000Y-94511000D01*
G75*
G02*
X149604000Y-94661000I-150000J0D01*
G01*
X147954000Y-94661000D01*
G75*
G02*
X147804000Y-94511000I0J150000D01*
G01*
G37*
%TD.AperFunction*%
%TO.P,U1,12*%
%TO.N,Net-(J2-Pad5)*%
%TA.AperFunction,SMDPad,CuDef*%
G36*
G01*
X147804000Y-95781000D02*
X147804000Y-95481000D01*
G75*
G02*
X147954000Y-95331000I150000J0D01*
G01*
X149604000Y-95331000D01*
G75*
G02*
X149754000Y-95481000I0J-150000D01*
G01*
X149754000Y-95781000D01*
G75*
G02*
X149604000Y-95931000I-150000J0D01*
G01*
X147954000Y-95931000D01*
G75*
G02*
X147804000Y-95781000I0J150000D01*
G01*
G37*
%TD.AperFunction*%
%TO.P,U1,11*%
%TO.N,Net-(J2-Pad6)*%
%TA.AperFunction,SMDPad,CuDef*%
G36*
G01*
X147804000Y-97051000D02*
X147804000Y-96751000D01*
G75*
G02*
X147954000Y-96601000I150000J0D01*
G01*
X149604000Y-96601000D01*
G75*
G02*
X149754000Y-96751000I0J-150000D01*
G01*
X149754000Y-97051000D01*
G75*
G02*
X149604000Y-97201000I-150000J0D01*
G01*
X147954000Y-97201000D01*
G75*
G02*
X147804000Y-97051000I0J150000D01*
G01*
G37*
%TD.AperFunction*%
%TO.P,U1,10*%
%TO.N,Net-(J2-Pad7)*%
%TA.AperFunction,SMDPad,CuDef*%
G36*
G01*
X147804000Y-98321000D02*
X147804000Y-98021000D01*
G75*
G02*
X147954000Y-97871000I150000J0D01*
G01*
X149604000Y-97871000D01*
G75*
G02*
X149754000Y-98021000I0J-150000D01*
G01*
X149754000Y-98321000D01*
G75*
G02*
X149604000Y-98471000I-150000J0D01*
G01*
X147954000Y-98471000D01*
G75*
G02*
X147804000Y-98321000I0J150000D01*
G01*
G37*
%TD.AperFunction*%
%TO.P,U1,9*%
%TO.N,Net-(J2-Pad8)*%
%TA.AperFunction,SMDPad,CuDef*%
G36*
G01*
X147804000Y-99591000D02*
X147804000Y-99291000D01*
G75*
G02*
X147954000Y-99141000I150000J0D01*
G01*
X149604000Y-99141000D01*
G75*
G02*
X149754000Y-99291000I0J-150000D01*
G01*
X149754000Y-99591000D01*
G75*
G02*
X149604000Y-99741000I-150000J0D01*
G01*
X147954000Y-99741000D01*
G75*
G02*
X147804000Y-99591000I0J150000D01*
G01*
G37*
%TD.AperFunction*%
%TO.P,U1,8*%
%TO.N,Net-(J1-Pad8)*%
%TA.AperFunction,SMDPad,CuDef*%
G36*
G01*
X142854000Y-99591000D02*
X142854000Y-99291000D01*
G75*
G02*
X143004000Y-99141000I150000J0D01*
G01*
X144654000Y-99141000D01*
G75*
G02*
X144804000Y-99291000I0J-150000D01*
G01*
X144804000Y-99591000D01*
G75*
G02*
X144654000Y-99741000I-150000J0D01*
G01*
X143004000Y-99741000D01*
G75*
G02*
X142854000Y-99591000I0J150000D01*
G01*
G37*
%TD.AperFunction*%
%TO.P,U1,7*%
%TO.N,Net-(J1-Pad7)*%
%TA.AperFunction,SMDPad,CuDef*%
G36*
G01*
X142854000Y-98321000D02*
X142854000Y-98021000D01*
G75*
G02*
X143004000Y-97871000I150000J0D01*
G01*
X144654000Y-97871000D01*
G75*
G02*
X144804000Y-98021000I0J-150000D01*
G01*
X144804000Y-98321000D01*
G75*
G02*
X144654000Y-98471000I-150000J0D01*
G01*
X143004000Y-98471000D01*
G75*
G02*
X142854000Y-98321000I0J150000D01*
G01*
G37*
%TD.AperFunction*%
%TO.P,U1,6*%
%TO.N,Net-(J1-Pad6)*%
%TA.AperFunction,SMDPad,CuDef*%
G36*
G01*
X142854000Y-97051000D02*
X142854000Y-96751000D01*
G75*
G02*
X143004000Y-96601000I150000J0D01*
G01*
X144654000Y-96601000D01*
G75*
G02*
X144804000Y-96751000I0J-150000D01*
G01*
X144804000Y-97051000D01*
G75*
G02*
X144654000Y-97201000I-150000J0D01*
G01*
X143004000Y-97201000D01*
G75*
G02*
X142854000Y-97051000I0J150000D01*
G01*
G37*
%TD.AperFunction*%
%TO.P,U1,5*%
%TO.N,Net-(J1-Pad5)*%
%TA.AperFunction,SMDPad,CuDef*%
G36*
G01*
X142854000Y-95781000D02*
X142854000Y-95481000D01*
G75*
G02*
X143004000Y-95331000I150000J0D01*
G01*
X144654000Y-95331000D01*
G75*
G02*
X144804000Y-95481000I0J-150000D01*
G01*
X144804000Y-95781000D01*
G75*
G02*
X144654000Y-95931000I-150000J0D01*
G01*
X143004000Y-95931000D01*
G75*
G02*
X142854000Y-95781000I0J150000D01*
G01*
G37*
%TD.AperFunction*%
%TO.P,U1,4*%
%TO.N,Net-(J1-Pad4)*%
%TA.AperFunction,SMDPad,CuDef*%
G36*
G01*
X142854000Y-94511000D02*
X142854000Y-94211000D01*
G75*
G02*
X143004000Y-94061000I150000J0D01*
G01*
X144654000Y-94061000D01*
G75*
G02*
X144804000Y-94211000I0J-150000D01*
G01*
X144804000Y-94511000D01*
G75*
G02*
X144654000Y-94661000I-150000J0D01*
G01*
X143004000Y-94661000D01*
G75*
G02*
X142854000Y-94511000I0J150000D01*
G01*
G37*
%TD.AperFunction*%
%TO.P,U1,3*%
%TO.N,Net-(J1-Pad3)*%
%TA.AperFunction,SMDPad,CuDef*%
G36*
G01*
X142854000Y-93241000D02*
X142854000Y-92941000D01*
G75*
G02*
X143004000Y-92791000I150000J0D01*
G01*
X144654000Y-92791000D01*
G75*
G02*
X144804000Y-92941000I0J-150000D01*
G01*
X144804000Y-93241000D01*
G75*
G02*
X144654000Y-93391000I-150000J0D01*
G01*
X143004000Y-93391000D01*
G75*
G02*
X142854000Y-93241000I0J150000D01*
G01*
G37*
%TD.AperFunction*%
%TO.P,U1,2*%
%TO.N,Net-(J1-Pad2)*%
%TA.AperFunction,SMDPad,CuDef*%
G36*
G01*
X142854000Y-91971000D02*
X142854000Y-91671000D01*
G75*
G02*
X143004000Y-91521000I150000J0D01*
G01*
X144654000Y-91521000D01*
G75*
G02*
X144804000Y-91671000I0J-150000D01*
G01*
X144804000Y-91971000D01*
G75*
G02*
X144654000Y-92121000I-150000J0D01*
G01*
X143004000Y-92121000D01*
G75*
G02*
X142854000Y-91971000I0J150000D01*
G01*
G37*
%TD.AperFunction*%
%TO.P,U1,1*%
%TO.N,Net-(J1-Pad1)*%
%TA.AperFunction,SMDPad,CuDef*%
G36*
G01*
X142854000Y-90701000D02*
X142854000Y-90401000D01*
G75*
G02*
X143004000Y-90251000I150000J0D01*
G01*
X144654000Y-90251000D01*
G75*
G02*
X144804000Y-90401000I0J-150000D01*
G01*
X144804000Y-90701000D01*
G75*
G02*
X144654000Y-90851000I-150000J0D01*
G01*
X143004000Y-90851000D01*
G75*
G02*
X142854000Y-90701000I0J150000D01*
G01*
G37*
%TD.AperFunction*%
%TD*%
D10*
%TO.P,J2,8*%
%TO.N,Net-(J2-Pad8)*%
X152400000Y-104140000D03*
%TO.P,J2,7*%
%TO.N,Net-(J2-Pad7)*%
X152400000Y-101600000D03*
%TO.P,J2,6*%
%TO.N,Net-(J2-Pad6)*%
X152400000Y-99060000D03*
%TO.P,J2,5*%
%TO.N,Net-(J2-Pad5)*%
X152400000Y-96520000D03*
%TO.P,J2,4*%
%TO.N,Net-(J2-Pad4)*%
X152400000Y-93980000D03*
%TO.P,J2,3*%
%TO.N,Net-(J2-Pad3)*%
X152400000Y-91440000D03*
%TO.P,J2,2*%
%TO.N,Net-(J2-Pad2)*%
X152400000Y-88900000D03*
D11*
%TO.P,J2,1*%
%TO.N,Net-(J2-Pad1)*%
X152400000Y-86360000D03*
%TD*%
D10*
%TO.P,J1,8*%
%TO.N,Net-(J1-Pad8)*%
X139700000Y-104140000D03*
%TO.P,J1,7*%
%TO.N,Net-(J1-Pad7)*%
X139700000Y-101600000D03*
%TO.P,J1,6*%
%TO.N,Net-(J1-Pad6)*%
X139700000Y-99060000D03*
%TO.P,J1,5*%
%TO.N,Net-(J1-Pad5)*%
X139700000Y-96520000D03*
%TO.P,J1,4*%
%TO.N,Net-(J1-Pad4)*%
X139700000Y-93980000D03*
%TO.P,J1,3*%
%TO.N,Net-(J1-Pad3)*%
X139700000Y-91440000D03*
%TO.P,J1,2*%
%TO.N,Net-(J1-Pad2)*%
X139700000Y-88900000D03*
D11*
%TO.P,J1,1*%
%TO.N,Net-(J1-Pad1)*%
X139700000Y-86360000D03*
%TD*%
D12*
%TO.N,Net-(J1-Pad8)*%
X143829000Y-100011000D02*
X139700000Y-104140000D01*
X143829000Y-99441000D02*
X143829000Y-100011000D01*
%TO.N,Net-(J1-Pad7)*%
X139700000Y-101325000D02*
X139700000Y-101600000D01*
X142854000Y-98171000D02*
X139700000Y-101325000D01*
X143829000Y-98171000D02*
X142854000Y-98171000D01*
%TO.N,Net-(J1-Pad6)*%
X140695000Y-99060000D02*
X139700000Y-99060000D01*
X142854000Y-96901000D02*
X140695000Y-99060000D01*
X143829000Y-96901000D02*
X142854000Y-96901000D01*
%TO.N,Net-(J1-Pad5)*%
X140589000Y-95631000D02*
X139700000Y-96520000D01*
X143829000Y-95631000D02*
X140589000Y-95631000D01*
%TO.N,Net-(J1-Pad4)*%
X140081000Y-94361000D02*
X139700000Y-93980000D01*
X143829000Y-94361000D02*
X140081000Y-94361000D01*
%TO.N,Net-(J1-Pad3)*%
X141351000Y-93091000D02*
X139700000Y-91440000D01*
X143829000Y-93091000D02*
X141351000Y-93091000D01*
%TO.N,Net-(J1-Pad2)*%
X139933000Y-88900000D02*
X139700000Y-88900000D01*
X142854000Y-91821000D02*
X139933000Y-88900000D01*
X143829000Y-91821000D02*
X142854000Y-91821000D01*
%TO.N,Net-(J1-Pad1)*%
X139700000Y-86422000D02*
X139700000Y-86360000D01*
X143829000Y-90551000D02*
X139700000Y-86422000D01*
%TO.N,Net-(J2-Pad8)*%
X148779000Y-100519000D02*
X152400000Y-104140000D01*
X148779000Y-99441000D02*
X148779000Y-100519000D01*
%TO.N,Net-(J2-Pad7)*%
X152400000Y-101238456D02*
X152400000Y-101600000D01*
X149332544Y-98171000D02*
X152400000Y-101238456D01*
X148779000Y-98171000D02*
X149332544Y-98171000D01*
%TO.N,Net-(J2-Pad6)*%
X150241000Y-96901000D02*
X152400000Y-99060000D01*
X148779000Y-96901000D02*
X150241000Y-96901000D01*
%TO.N,Net-(J2-Pad5)*%
X151511000Y-95631000D02*
X152400000Y-96520000D01*
X148779000Y-95631000D02*
X151511000Y-95631000D01*
%TO.N,Net-(J2-Pad4)*%
X152019000Y-94361000D02*
X152400000Y-93980000D01*
X148779000Y-94361000D02*
X152019000Y-94361000D01*
%TO.N,Net-(J2-Pad3)*%
X150749000Y-93091000D02*
X152400000Y-91440000D01*
X148779000Y-93091000D02*
X150749000Y-93091000D01*
%TO.N,Net-(J2-Pad2)*%
X149479000Y-91821000D02*
X152400000Y-88900000D01*
X148779000Y-91821000D02*
X149479000Y-91821000D01*
%TO.N,Net-(J2-Pad1)*%
X148779000Y-89981000D02*
X152400000Y-86360000D01*
X148779000Y-90551000D02*
X148779000Y-89981000D01*
%TD*%
M02*
