%TF.GenerationSoftware,KiCad,Pcbnew,(5.1.9)-1*%
%TF.CreationDate,2021-09-05T15:11:22+02:00*%
%TF.ProjectId,SOIC-16,534f4943-2d31-4362-9e6b-696361645f70,rev?*%
%TF.SameCoordinates,Original*%
%TF.FileFunction,Soldermask,Top*%
%TF.FilePolarity,Negative*%
%FSLAX46Y46*%
G04 Gerber Fmt 4.6, Leading zero omitted, Abs format (unit mm)*
G04 Created by KiCad (PCBNEW (5.1.9)-1) date 2021-09-05 15:11:22*
%MOMM*%
%LPD*%
G01*
G04 APERTURE LIST*
%ADD10O,1.700000X1.700000*%
%ADD11R,1.700000X1.700000*%
G04 APERTURE END LIST*
%TO.C,U1*%
G36*
G01*
X147804000Y-90701000D02*
X147804000Y-90401000D01*
G75*
G02*
X147954000Y-90251000I150000J0D01*
G01*
X149604000Y-90251000D01*
G75*
G02*
X149754000Y-90401000I0J-150000D01*
G01*
X149754000Y-90701000D01*
G75*
G02*
X149604000Y-90851000I-150000J0D01*
G01*
X147954000Y-90851000D01*
G75*
G02*
X147804000Y-90701000I0J150000D01*
G01*
G37*
G36*
G01*
X147804000Y-91971000D02*
X147804000Y-91671000D01*
G75*
G02*
X147954000Y-91521000I150000J0D01*
G01*
X149604000Y-91521000D01*
G75*
G02*
X149754000Y-91671000I0J-150000D01*
G01*
X149754000Y-91971000D01*
G75*
G02*
X149604000Y-92121000I-150000J0D01*
G01*
X147954000Y-92121000D01*
G75*
G02*
X147804000Y-91971000I0J150000D01*
G01*
G37*
G36*
G01*
X147804000Y-93241000D02*
X147804000Y-92941000D01*
G75*
G02*
X147954000Y-92791000I150000J0D01*
G01*
X149604000Y-92791000D01*
G75*
G02*
X149754000Y-92941000I0J-150000D01*
G01*
X149754000Y-93241000D01*
G75*
G02*
X149604000Y-93391000I-150000J0D01*
G01*
X147954000Y-93391000D01*
G75*
G02*
X147804000Y-93241000I0J150000D01*
G01*
G37*
G36*
G01*
X147804000Y-94511000D02*
X147804000Y-94211000D01*
G75*
G02*
X147954000Y-94061000I150000J0D01*
G01*
X149604000Y-94061000D01*
G75*
G02*
X149754000Y-94211000I0J-150000D01*
G01*
X149754000Y-94511000D01*
G75*
G02*
X149604000Y-94661000I-150000J0D01*
G01*
X147954000Y-94661000D01*
G75*
G02*
X147804000Y-94511000I0J150000D01*
G01*
G37*
G36*
G01*
X147804000Y-95781000D02*
X147804000Y-95481000D01*
G75*
G02*
X147954000Y-95331000I150000J0D01*
G01*
X149604000Y-95331000D01*
G75*
G02*
X149754000Y-95481000I0J-150000D01*
G01*
X149754000Y-95781000D01*
G75*
G02*
X149604000Y-95931000I-150000J0D01*
G01*
X147954000Y-95931000D01*
G75*
G02*
X147804000Y-95781000I0J150000D01*
G01*
G37*
G36*
G01*
X147804000Y-97051000D02*
X147804000Y-96751000D01*
G75*
G02*
X147954000Y-96601000I150000J0D01*
G01*
X149604000Y-96601000D01*
G75*
G02*
X149754000Y-96751000I0J-150000D01*
G01*
X149754000Y-97051000D01*
G75*
G02*
X149604000Y-97201000I-150000J0D01*
G01*
X147954000Y-97201000D01*
G75*
G02*
X147804000Y-97051000I0J150000D01*
G01*
G37*
G36*
G01*
X147804000Y-98321000D02*
X147804000Y-98021000D01*
G75*
G02*
X147954000Y-97871000I150000J0D01*
G01*
X149604000Y-97871000D01*
G75*
G02*
X149754000Y-98021000I0J-150000D01*
G01*
X149754000Y-98321000D01*
G75*
G02*
X149604000Y-98471000I-150000J0D01*
G01*
X147954000Y-98471000D01*
G75*
G02*
X147804000Y-98321000I0J150000D01*
G01*
G37*
G36*
G01*
X147804000Y-99591000D02*
X147804000Y-99291000D01*
G75*
G02*
X147954000Y-99141000I150000J0D01*
G01*
X149604000Y-99141000D01*
G75*
G02*
X149754000Y-99291000I0J-150000D01*
G01*
X149754000Y-99591000D01*
G75*
G02*
X149604000Y-99741000I-150000J0D01*
G01*
X147954000Y-99741000D01*
G75*
G02*
X147804000Y-99591000I0J150000D01*
G01*
G37*
G36*
G01*
X142854000Y-99591000D02*
X142854000Y-99291000D01*
G75*
G02*
X143004000Y-99141000I150000J0D01*
G01*
X144654000Y-99141000D01*
G75*
G02*
X144804000Y-99291000I0J-150000D01*
G01*
X144804000Y-99591000D01*
G75*
G02*
X144654000Y-99741000I-150000J0D01*
G01*
X143004000Y-99741000D01*
G75*
G02*
X142854000Y-99591000I0J150000D01*
G01*
G37*
G36*
G01*
X142854000Y-98321000D02*
X142854000Y-98021000D01*
G75*
G02*
X143004000Y-97871000I150000J0D01*
G01*
X144654000Y-97871000D01*
G75*
G02*
X144804000Y-98021000I0J-150000D01*
G01*
X144804000Y-98321000D01*
G75*
G02*
X144654000Y-98471000I-150000J0D01*
G01*
X143004000Y-98471000D01*
G75*
G02*
X142854000Y-98321000I0J150000D01*
G01*
G37*
G36*
G01*
X142854000Y-97051000D02*
X142854000Y-96751000D01*
G75*
G02*
X143004000Y-96601000I150000J0D01*
G01*
X144654000Y-96601000D01*
G75*
G02*
X144804000Y-96751000I0J-150000D01*
G01*
X144804000Y-97051000D01*
G75*
G02*
X144654000Y-97201000I-150000J0D01*
G01*
X143004000Y-97201000D01*
G75*
G02*
X142854000Y-97051000I0J150000D01*
G01*
G37*
G36*
G01*
X142854000Y-95781000D02*
X142854000Y-95481000D01*
G75*
G02*
X143004000Y-95331000I150000J0D01*
G01*
X144654000Y-95331000D01*
G75*
G02*
X144804000Y-95481000I0J-150000D01*
G01*
X144804000Y-95781000D01*
G75*
G02*
X144654000Y-95931000I-150000J0D01*
G01*
X143004000Y-95931000D01*
G75*
G02*
X142854000Y-95781000I0J150000D01*
G01*
G37*
G36*
G01*
X142854000Y-94511000D02*
X142854000Y-94211000D01*
G75*
G02*
X143004000Y-94061000I150000J0D01*
G01*
X144654000Y-94061000D01*
G75*
G02*
X144804000Y-94211000I0J-150000D01*
G01*
X144804000Y-94511000D01*
G75*
G02*
X144654000Y-94661000I-150000J0D01*
G01*
X143004000Y-94661000D01*
G75*
G02*
X142854000Y-94511000I0J150000D01*
G01*
G37*
G36*
G01*
X142854000Y-93241000D02*
X142854000Y-92941000D01*
G75*
G02*
X143004000Y-92791000I150000J0D01*
G01*
X144654000Y-92791000D01*
G75*
G02*
X144804000Y-92941000I0J-150000D01*
G01*
X144804000Y-93241000D01*
G75*
G02*
X144654000Y-93391000I-150000J0D01*
G01*
X143004000Y-93391000D01*
G75*
G02*
X142854000Y-93241000I0J150000D01*
G01*
G37*
G36*
G01*
X142854000Y-91971000D02*
X142854000Y-91671000D01*
G75*
G02*
X143004000Y-91521000I150000J0D01*
G01*
X144654000Y-91521000D01*
G75*
G02*
X144804000Y-91671000I0J-150000D01*
G01*
X144804000Y-91971000D01*
G75*
G02*
X144654000Y-92121000I-150000J0D01*
G01*
X143004000Y-92121000D01*
G75*
G02*
X142854000Y-91971000I0J150000D01*
G01*
G37*
G36*
G01*
X142854000Y-90701000D02*
X142854000Y-90401000D01*
G75*
G02*
X143004000Y-90251000I150000J0D01*
G01*
X144654000Y-90251000D01*
G75*
G02*
X144804000Y-90401000I0J-150000D01*
G01*
X144804000Y-90701000D01*
G75*
G02*
X144654000Y-90851000I-150000J0D01*
G01*
X143004000Y-90851000D01*
G75*
G02*
X142854000Y-90701000I0J150000D01*
G01*
G37*
%TD*%
D10*
%TO.C,J2*%
X152400000Y-104140000D03*
X152400000Y-101600000D03*
X152400000Y-99060000D03*
X152400000Y-96520000D03*
X152400000Y-93980000D03*
X152400000Y-91440000D03*
X152400000Y-88900000D03*
D11*
X152400000Y-86360000D03*
%TD*%
D10*
%TO.C,J1*%
X139700000Y-104140000D03*
X139700000Y-101600000D03*
X139700000Y-99060000D03*
X139700000Y-96520000D03*
X139700000Y-93980000D03*
X139700000Y-91440000D03*
X139700000Y-88900000D03*
D11*
X139700000Y-86360000D03*
%TD*%
M02*
