%TF.GenerationSoftware,KiCad,Pcbnew,(5.1.9)-1*%
%TF.CreationDate,2021-09-06T10:01:33+02:00*%
%TF.ProjectId,SO-18-WIDE,534f2d31-382d-4574-9944-452e6b696361,rev?*%
%TF.SameCoordinates,Original*%
%TF.FileFunction,Soldermask,Top*%
%TF.FilePolarity,Negative*%
%FSLAX46Y46*%
G04 Gerber Fmt 4.6, Leading zero omitted, Abs format (unit mm)*
G04 Created by KiCad (PCBNEW (5.1.9)-1) date 2021-09-06 10:01:33*
%MOMM*%
%LPD*%
G01*
G04 APERTURE LIST*
%ADD10R,1.700000X1.700000*%
%ADD11O,1.700000X1.700000*%
G04 APERTURE END LIST*
D10*
%TO.C,REF\u002A\u002A*%
X142240000Y-72390000D03*
D11*
X142240000Y-74930000D03*
X142240000Y-77470000D03*
X142240000Y-80010000D03*
X142240000Y-82550000D03*
X142240000Y-85090000D03*
X142240000Y-87630000D03*
X142240000Y-90170000D03*
X142240000Y-92710000D03*
%TD*%
%TO.C,REF\u002A\u002A*%
X124460000Y-92710000D03*
X124460000Y-90170000D03*
X124460000Y-87630000D03*
X124460000Y-85090000D03*
X124460000Y-82550000D03*
X124460000Y-80010000D03*
X124460000Y-77470000D03*
X124460000Y-74930000D03*
D10*
X124460000Y-72390000D03*
%TD*%
%TO.C,REF\u002A\u002A*%
G36*
G01*
X136799000Y-77620000D02*
X136799000Y-77320000D01*
G75*
G02*
X136949000Y-77170000I150000J0D01*
G01*
X138699000Y-77170000D01*
G75*
G02*
X138849000Y-77320000I0J-150000D01*
G01*
X138849000Y-77620000D01*
G75*
G02*
X138699000Y-77770000I-150000J0D01*
G01*
X136949000Y-77770000D01*
G75*
G02*
X136799000Y-77620000I0J150000D01*
G01*
G37*
G36*
G01*
X136799000Y-78890000D02*
X136799000Y-78590000D01*
G75*
G02*
X136949000Y-78440000I150000J0D01*
G01*
X138699000Y-78440000D01*
G75*
G02*
X138849000Y-78590000I0J-150000D01*
G01*
X138849000Y-78890000D01*
G75*
G02*
X138699000Y-79040000I-150000J0D01*
G01*
X136949000Y-79040000D01*
G75*
G02*
X136799000Y-78890000I0J150000D01*
G01*
G37*
G36*
G01*
X136799000Y-80160000D02*
X136799000Y-79860000D01*
G75*
G02*
X136949000Y-79710000I150000J0D01*
G01*
X138699000Y-79710000D01*
G75*
G02*
X138849000Y-79860000I0J-150000D01*
G01*
X138849000Y-80160000D01*
G75*
G02*
X138699000Y-80310000I-150000J0D01*
G01*
X136949000Y-80310000D01*
G75*
G02*
X136799000Y-80160000I0J150000D01*
G01*
G37*
G36*
G01*
X136799000Y-81430000D02*
X136799000Y-81130000D01*
G75*
G02*
X136949000Y-80980000I150000J0D01*
G01*
X138699000Y-80980000D01*
G75*
G02*
X138849000Y-81130000I0J-150000D01*
G01*
X138849000Y-81430000D01*
G75*
G02*
X138699000Y-81580000I-150000J0D01*
G01*
X136949000Y-81580000D01*
G75*
G02*
X136799000Y-81430000I0J150000D01*
G01*
G37*
G36*
G01*
X136799000Y-82700000D02*
X136799000Y-82400000D01*
G75*
G02*
X136949000Y-82250000I150000J0D01*
G01*
X138699000Y-82250000D01*
G75*
G02*
X138849000Y-82400000I0J-150000D01*
G01*
X138849000Y-82700000D01*
G75*
G02*
X138699000Y-82850000I-150000J0D01*
G01*
X136949000Y-82850000D01*
G75*
G02*
X136799000Y-82700000I0J150000D01*
G01*
G37*
G36*
G01*
X136799000Y-83970000D02*
X136799000Y-83670000D01*
G75*
G02*
X136949000Y-83520000I150000J0D01*
G01*
X138699000Y-83520000D01*
G75*
G02*
X138849000Y-83670000I0J-150000D01*
G01*
X138849000Y-83970000D01*
G75*
G02*
X138699000Y-84120000I-150000J0D01*
G01*
X136949000Y-84120000D01*
G75*
G02*
X136799000Y-83970000I0J150000D01*
G01*
G37*
G36*
G01*
X136799000Y-85240000D02*
X136799000Y-84940000D01*
G75*
G02*
X136949000Y-84790000I150000J0D01*
G01*
X138699000Y-84790000D01*
G75*
G02*
X138849000Y-84940000I0J-150000D01*
G01*
X138849000Y-85240000D01*
G75*
G02*
X138699000Y-85390000I-150000J0D01*
G01*
X136949000Y-85390000D01*
G75*
G02*
X136799000Y-85240000I0J150000D01*
G01*
G37*
G36*
G01*
X136799000Y-86510000D02*
X136799000Y-86210000D01*
G75*
G02*
X136949000Y-86060000I150000J0D01*
G01*
X138699000Y-86060000D01*
G75*
G02*
X138849000Y-86210000I0J-150000D01*
G01*
X138849000Y-86510000D01*
G75*
G02*
X138699000Y-86660000I-150000J0D01*
G01*
X136949000Y-86660000D01*
G75*
G02*
X136799000Y-86510000I0J150000D01*
G01*
G37*
G36*
G01*
X136799000Y-87780000D02*
X136799000Y-87480000D01*
G75*
G02*
X136949000Y-87330000I150000J0D01*
G01*
X138699000Y-87330000D01*
G75*
G02*
X138849000Y-87480000I0J-150000D01*
G01*
X138849000Y-87780000D01*
G75*
G02*
X138699000Y-87930000I-150000J0D01*
G01*
X136949000Y-87930000D01*
G75*
G02*
X136799000Y-87780000I0J150000D01*
G01*
G37*
G36*
G01*
X127499000Y-87780000D02*
X127499000Y-87480000D01*
G75*
G02*
X127649000Y-87330000I150000J0D01*
G01*
X129399000Y-87330000D01*
G75*
G02*
X129549000Y-87480000I0J-150000D01*
G01*
X129549000Y-87780000D01*
G75*
G02*
X129399000Y-87930000I-150000J0D01*
G01*
X127649000Y-87930000D01*
G75*
G02*
X127499000Y-87780000I0J150000D01*
G01*
G37*
G36*
G01*
X127499000Y-86510000D02*
X127499000Y-86210000D01*
G75*
G02*
X127649000Y-86060000I150000J0D01*
G01*
X129399000Y-86060000D01*
G75*
G02*
X129549000Y-86210000I0J-150000D01*
G01*
X129549000Y-86510000D01*
G75*
G02*
X129399000Y-86660000I-150000J0D01*
G01*
X127649000Y-86660000D01*
G75*
G02*
X127499000Y-86510000I0J150000D01*
G01*
G37*
G36*
G01*
X127499000Y-85240000D02*
X127499000Y-84940000D01*
G75*
G02*
X127649000Y-84790000I150000J0D01*
G01*
X129399000Y-84790000D01*
G75*
G02*
X129549000Y-84940000I0J-150000D01*
G01*
X129549000Y-85240000D01*
G75*
G02*
X129399000Y-85390000I-150000J0D01*
G01*
X127649000Y-85390000D01*
G75*
G02*
X127499000Y-85240000I0J150000D01*
G01*
G37*
G36*
G01*
X127499000Y-83970000D02*
X127499000Y-83670000D01*
G75*
G02*
X127649000Y-83520000I150000J0D01*
G01*
X129399000Y-83520000D01*
G75*
G02*
X129549000Y-83670000I0J-150000D01*
G01*
X129549000Y-83970000D01*
G75*
G02*
X129399000Y-84120000I-150000J0D01*
G01*
X127649000Y-84120000D01*
G75*
G02*
X127499000Y-83970000I0J150000D01*
G01*
G37*
G36*
G01*
X127499000Y-82700000D02*
X127499000Y-82400000D01*
G75*
G02*
X127649000Y-82250000I150000J0D01*
G01*
X129399000Y-82250000D01*
G75*
G02*
X129549000Y-82400000I0J-150000D01*
G01*
X129549000Y-82700000D01*
G75*
G02*
X129399000Y-82850000I-150000J0D01*
G01*
X127649000Y-82850000D01*
G75*
G02*
X127499000Y-82700000I0J150000D01*
G01*
G37*
G36*
G01*
X127499000Y-81430000D02*
X127499000Y-81130000D01*
G75*
G02*
X127649000Y-80980000I150000J0D01*
G01*
X129399000Y-80980000D01*
G75*
G02*
X129549000Y-81130000I0J-150000D01*
G01*
X129549000Y-81430000D01*
G75*
G02*
X129399000Y-81580000I-150000J0D01*
G01*
X127649000Y-81580000D01*
G75*
G02*
X127499000Y-81430000I0J150000D01*
G01*
G37*
G36*
G01*
X127499000Y-80160000D02*
X127499000Y-79860000D01*
G75*
G02*
X127649000Y-79710000I150000J0D01*
G01*
X129399000Y-79710000D01*
G75*
G02*
X129549000Y-79860000I0J-150000D01*
G01*
X129549000Y-80160000D01*
G75*
G02*
X129399000Y-80310000I-150000J0D01*
G01*
X127649000Y-80310000D01*
G75*
G02*
X127499000Y-80160000I0J150000D01*
G01*
G37*
G36*
G01*
X127499000Y-78890000D02*
X127499000Y-78590000D01*
G75*
G02*
X127649000Y-78440000I150000J0D01*
G01*
X129399000Y-78440000D01*
G75*
G02*
X129549000Y-78590000I0J-150000D01*
G01*
X129549000Y-78890000D01*
G75*
G02*
X129399000Y-79040000I-150000J0D01*
G01*
X127649000Y-79040000D01*
G75*
G02*
X127499000Y-78890000I0J150000D01*
G01*
G37*
G36*
G01*
X127499000Y-77620000D02*
X127499000Y-77320000D01*
G75*
G02*
X127649000Y-77170000I150000J0D01*
G01*
X129399000Y-77170000D01*
G75*
G02*
X129549000Y-77320000I0J-150000D01*
G01*
X129549000Y-77620000D01*
G75*
G02*
X129399000Y-77770000I-150000J0D01*
G01*
X127649000Y-77770000D01*
G75*
G02*
X127499000Y-77620000I0J150000D01*
G01*
G37*
%TD*%
M02*
