%TF.GenerationSoftware,KiCad,Pcbnew,(5.1.9)-1*%
%TF.CreationDate,2021-09-05T14:32:19+02:00*%
%TF.ProjectId,SC-70-6,53432d37-302d-4362-9e6b-696361645f70,rev?*%
%TF.SameCoordinates,Original*%
%TF.FileFunction,Legend,Top*%
%TF.FilePolarity,Positive*%
%FSLAX46Y46*%
G04 Gerber Fmt 4.6, Leading zero omitted, Abs format (unit mm)*
G04 Created by KiCad (PCBNEW (5.1.9)-1) date 2021-09-05 14:32:19*
%MOMM*%
%LPD*%
G01*
G04 APERTURE LIST*
%ADD10C,0.150000*%
%ADD11C,0.120000*%
G04 APERTURE END LIST*
D10*
X115887619Y-85796380D02*
X115316190Y-85796380D01*
X115601904Y-85796380D02*
X115601904Y-84796380D01*
X115506666Y-84939238D01*
X115411428Y-85034476D01*
X115316190Y-85082095D01*
X118268571Y-84796380D02*
X118078095Y-84796380D01*
X117982857Y-84844000D01*
X117935238Y-84891619D01*
X117840000Y-85034476D01*
X117792380Y-85224952D01*
X117792380Y-85605904D01*
X117840000Y-85701142D01*
X117887619Y-85748761D01*
X117982857Y-85796380D01*
X118173333Y-85796380D01*
X118268571Y-85748761D01*
X118316190Y-85701142D01*
X118363809Y-85605904D01*
X118363809Y-85367809D01*
X118316190Y-85272571D01*
X118268571Y-85224952D01*
X118173333Y-85177333D01*
X117982857Y-85177333D01*
X117887619Y-85224952D01*
X117840000Y-85272571D01*
X117792380Y-85367809D01*
D11*
%TO.C,REF\u002A\u002A*%
X110430000Y-92770000D02*
X113090000Y-92770000D01*
X110430000Y-87630000D02*
X110430000Y-92770000D01*
X113090000Y-87630000D02*
X113090000Y-92770000D01*
X110430000Y-87630000D02*
X113090000Y-87630000D01*
X110430000Y-86360000D02*
X110430000Y-85030000D01*
X110430000Y-85030000D02*
X111760000Y-85030000D01*
X120590000Y-92770000D02*
X123250000Y-92770000D01*
X120590000Y-87630000D02*
X120590000Y-92770000D01*
X123250000Y-87630000D02*
X123250000Y-92770000D01*
X120590000Y-87630000D02*
X123250000Y-87630000D01*
X120590000Y-86360000D02*
X120590000Y-85030000D01*
X120590000Y-85030000D02*
X121920000Y-85030000D01*
X117346000Y-87740000D02*
X115446000Y-87740000D01*
X115946000Y-90060000D02*
X117346000Y-90060000D01*
%TD*%
M02*
