<?xml version="1.0" standalone="no"?>
 <!DOCTYPE svg PUBLIC "-//W3C//DTD SVG 1.1//EN" 
 "http://www.w3.org/Graphics/SVG/1.1/DTD/svg11.dtd"> 
<svg
  xmlns:svg="http://www.w3.org/2000/svg"
  xmlns="http://www.w3.org/2000/svg"
  xmlns:xlink="http://www.w3.org/1999/xlink"
  version="1.1"
  width="2.192020cm" height="2.407920cm" viewBox="0 0 8630 9480">
<title>SVG Picture created as SOIC-16-brd.svg date 2021/09/05 15:22:41 </title>
  <desc>Picture generated by PCBNEW </desc>
<g style="fill:#000000; fill-opacity:1;stroke:#000000; stroke-opacity:1;
stroke-linecap:round; stroke-linejoin:round;"
 transform="translate(0 0) scale(1 1)">
</g>
<g style="fill:#000000; fill-opacity:0.0; 
stroke:#000000; stroke-width:-0.000393701; stroke-opacity:1; 
stroke-linecap:round; stroke-linejoin:round;">
<g >
</g>
<g >
</g>
<g >
</g>
<g >
</g>
</g>
<g style="fill:#000000; fill-opacity:0.0; 
stroke:#000000; stroke-width:-0.000393701; stroke-opacity:1; 
stroke-linecap:round; stroke-linejoin:round;">
<g >
</g>
<g >
</g>
<g >
</g>
<g >
</g>
<g >
</g>
<g >
</g>
</g>
<g style="fill:#000000; fill-opacity:0.0; 
stroke:#000000; stroke-width:-0.000393701; stroke-opacity:1; 
stroke-linecap:round; stroke-linejoin:round;">
<g >
</g>
</g>
<g style="fill:#000000; fill-opacity:0.0; 
stroke:#000000; stroke-width:-0.000393701; stroke-opacity:1; 
stroke-linecap:round; stroke-linejoin:round;">
<g >
</g>
<g >
</g>
<g >
</g>
<g >
</g>
<g >
</g>
<g >
</g>
</g>
<g style="fill:#000000; fill-opacity:0.0; 
stroke:#000000; stroke-width:-0.000393701; stroke-opacity:1; 
stroke-linecap:round; stroke-linejoin:round;">
<g >
</g>
<g >
</g>
<g style="fill:#848400; fill-opacity:0.0; 
stroke:#848400; stroke-width:-0.000393701; stroke-opacity:1; 
stroke-linecap:round; stroke-linejoin:round;">
</g>
<g style="fill:#848400; fill-opacity:1.0; 
stroke:#848400; stroke-width:0; stroke-opacity:1; 
stroke-linecap:round; stroke-linejoin:round;">
<circle cx="6819.93" cy="8215.55" r="334.646" /> 
<circle cx="6819.93" cy="7215.55" r="334.646" /> 
<circle cx="6819.93" cy="6215.55" r="334.646" /> 
<circle cx="6819.93" cy="5215.55" r="334.646" /> 
<circle cx="6819.93" cy="4215.55" r="334.646" /> 
<circle cx="6819.93" cy="3215.55" r="334.646" /> 
<circle cx="6819.93" cy="2215.55" r="334.646" /> 
<path style="fill:#848400; fill-opacity:1.0; 
stroke:#848400; stroke-width:0; stroke-opacity:1; 
stroke-linecap:round; stroke-linejoin:round;fill-rule:evenodd;"
d="M 6485.28,1550.2
6485.28,880.906
7154.57,880.906
7154.57,1550.2
Z" /> 
</g>
<g >
</g>
<g style="fill:#848400; fill-opacity:1.0; 
stroke:#848400; stroke-width:0; stroke-opacity:1; 
stroke-linecap:round; stroke-linejoin:round;">
<circle cx="1819.93" cy="8215.55" r="334.646" /> 
<circle cx="1819.93" cy="7215.55" r="334.646" /> 
<circle cx="1819.93" cy="6215.55" r="334.646" /> 
<circle cx="1819.93" cy="5215.55" r="334.646" /> 
<circle cx="1819.93" cy="4215.55" r="334.646" /> 
<circle cx="1819.93" cy="3215.55" r="334.646" /> 
<circle cx="1819.93" cy="2215.55" r="334.646" /> 
<path style="fill:#848400; fill-opacity:1.0; 
stroke:#848400; stroke-width:0; stroke-opacity:1; 
stroke-linecap:round; stroke-linejoin:round;fill-rule:evenodd;"
d="M 1485.28,1550.2
1485.28,880.906
2154.57,880.906
2154.57,1550.2
Z" /> 
</g>
<g >
</g>
<g >
</g>
<g >
</g>
</g>
<g style="fill:#000000; fill-opacity:1.0; 
stroke:#000000; stroke-width:0; stroke-opacity:1; 
stroke-linecap:round; stroke-linejoin:round;">
<g >
</g>
<g >
</g>
<g style="fill:#848400; fill-opacity:1.0; 
stroke:#848400; stroke-width:0; stroke-opacity:1; 
stroke-linecap:round; stroke-linejoin:round;">
<circle cx="6819.93" cy="8215.55" r="334.646" /> 
<circle cx="6819.93" cy="7215.55" r="334.646" /> 
<circle cx="6819.93" cy="6215.55" r="334.646" /> 
<circle cx="6819.93" cy="5215.55" r="334.646" /> 
<circle cx="6819.93" cy="4215.55" r="334.646" /> 
<circle cx="6819.93" cy="3215.55" r="334.646" /> 
<circle cx="6819.93" cy="2215.55" r="334.646" /> 
<path style="fill:#848400; fill-opacity:1.0; 
stroke:#848400; stroke-width:0; stroke-opacity:1; 
stroke-linecap:round; stroke-linejoin:round;fill-rule:evenodd;"
d="M 6485.28,1550.2
6485.28,880.906
7154.57,880.906
7154.57,1550.2
Z" /> 
</g>
<g >
</g>
<g style="fill:#848400; fill-opacity:1.0; 
stroke:#848400; stroke-width:0; stroke-opacity:1; 
stroke-linecap:round; stroke-linejoin:round;">
<circle cx="1819.93" cy="8215.55" r="334.646" /> 
<circle cx="1819.93" cy="7215.55" r="334.646" /> 
<circle cx="1819.93" cy="6215.55" r="334.646" /> 
<circle cx="1819.93" cy="5215.55" r="334.646" /> 
<circle cx="1819.93" cy="4215.55" r="334.646" /> 
<circle cx="1819.93" cy="3215.55" r="334.646" /> 
<circle cx="1819.93" cy="2215.55" r="334.646" /> 
<path style="fill:#848400; fill-opacity:1.0; 
stroke:#848400; stroke-width:0; stroke-opacity:1; 
stroke-linecap:round; stroke-linejoin:round;fill-rule:evenodd;"
d="M 1485.28,1550.2
1485.28,880.906
2154.57,880.906
2154.57,1550.2
Z" /> 
</g>
<g >
</g>
<g >
</g>
<g >
</g>
</g>
<g style="fill:#FFFFFF; fill-opacity:1.0; 
stroke:#FFFFFF; stroke-width:0; stroke-opacity:1; 
stroke-linecap:round; stroke-linejoin:round;">
<circle cx="6819.93" cy="8215.55" r="196.85" /> 
</g>
<g style="fill:#FFFFFF; fill-opacity:1.0; 
stroke:#FFFFFF; stroke-width:39.3701; stroke-opacity:1; 
stroke-linecap:round; stroke-linejoin:round;">
</g>
<g style="fill:#FFFFFF; fill-opacity:1.0; 
stroke:#FFFFFF; stroke-width:0; stroke-opacity:1; 
stroke-linecap:round; stroke-linejoin:round;">
<circle cx="6819.93" cy="7215.55" r="196.85" /> 
</g>
<g style="fill:#FFFFFF; fill-opacity:1.0; 
stroke:#FFFFFF; stroke-width:39.3701; stroke-opacity:1; 
stroke-linecap:round; stroke-linejoin:round;">
</g>
<g style="fill:#FFFFFF; fill-opacity:1.0; 
stroke:#FFFFFF; stroke-width:0; stroke-opacity:1; 
stroke-linecap:round; stroke-linejoin:round;">
<circle cx="6819.93" cy="6215.55" r="196.85" /> 
</g>
<g style="fill:#FFFFFF; fill-opacity:1.0; 
stroke:#FFFFFF; stroke-width:39.3701; stroke-opacity:1; 
stroke-linecap:round; stroke-linejoin:round;">
</g>
<g style="fill:#FFFFFF; fill-opacity:1.0; 
stroke:#FFFFFF; stroke-width:0; stroke-opacity:1; 
stroke-linecap:round; stroke-linejoin:round;">
<circle cx="6819.93" cy="5215.55" r="196.85" /> 
</g>
<g style="fill:#FFFFFF; fill-opacity:1.0; 
stroke:#FFFFFF; stroke-width:39.3701; stroke-opacity:1; 
stroke-linecap:round; stroke-linejoin:round;">
</g>
<g style="fill:#FFFFFF; fill-opacity:1.0; 
stroke:#FFFFFF; stroke-width:0; stroke-opacity:1; 
stroke-linecap:round; stroke-linejoin:round;">
<circle cx="6819.93" cy="4215.55" r="196.85" /> 
</g>
<g style="fill:#FFFFFF; fill-opacity:1.0; 
stroke:#FFFFFF; stroke-width:39.3701; stroke-opacity:1; 
stroke-linecap:round; stroke-linejoin:round;">
</g>
<g style="fill:#FFFFFF; fill-opacity:1.0; 
stroke:#FFFFFF; stroke-width:0; stroke-opacity:1; 
stroke-linecap:round; stroke-linejoin:round;">
<circle cx="6819.93" cy="3215.55" r="196.85" /> 
</g>
<g style="fill:#FFFFFF; fill-opacity:1.0; 
stroke:#FFFFFF; stroke-width:39.3701; stroke-opacity:1; 
stroke-linecap:round; stroke-linejoin:round;">
</g>
<g style="fill:#FFFFFF; fill-opacity:1.0; 
stroke:#FFFFFF; stroke-width:0; stroke-opacity:1; 
stroke-linecap:round; stroke-linejoin:round;">
<circle cx="6819.93" cy="2215.55" r="196.85" /> 
</g>
<g style="fill:#FFFFFF; fill-opacity:1.0; 
stroke:#FFFFFF; stroke-width:39.3701; stroke-opacity:1; 
stroke-linecap:round; stroke-linejoin:round;">
</g>
<g style="fill:#FFFFFF; fill-opacity:1.0; 
stroke:#FFFFFF; stroke-width:0; stroke-opacity:1; 
stroke-linecap:round; stroke-linejoin:round;">
<circle cx="6819.93" cy="1215.55" r="196.85" /> 
</g>
<g style="fill:#FFFFFF; fill-opacity:1.0; 
stroke:#FFFFFF; stroke-width:39.3701; stroke-opacity:1; 
stroke-linecap:round; stroke-linejoin:round;">
</g>
<g style="fill:#FFFFFF; fill-opacity:1.0; 
stroke:#FFFFFF; stroke-width:0; stroke-opacity:1; 
stroke-linecap:round; stroke-linejoin:round;">
<circle cx="1819.93" cy="8215.55" r="196.85" /> 
</g>
<g style="fill:#FFFFFF; fill-opacity:1.0; 
stroke:#FFFFFF; stroke-width:39.3701; stroke-opacity:1; 
stroke-linecap:round; stroke-linejoin:round;">
</g>
<g style="fill:#FFFFFF; fill-opacity:1.0; 
stroke:#FFFFFF; stroke-width:0; stroke-opacity:1; 
stroke-linecap:round; stroke-linejoin:round;">
<circle cx="1819.93" cy="7215.55" r="196.85" /> 
</g>
<g style="fill:#FFFFFF; fill-opacity:1.0; 
stroke:#FFFFFF; stroke-width:39.3701; stroke-opacity:1; 
stroke-linecap:round; stroke-linejoin:round;">
</g>
<g style="fill:#FFFFFF; fill-opacity:1.0; 
stroke:#FFFFFF; stroke-width:0; stroke-opacity:1; 
stroke-linecap:round; stroke-linejoin:round;">
<circle cx="1819.93" cy="6215.55" r="196.85" /> 
</g>
<g style="fill:#FFFFFF; fill-opacity:1.0; 
stroke:#FFFFFF; stroke-width:39.3701; stroke-opacity:1; 
stroke-linecap:round; stroke-linejoin:round;">
</g>
<g style="fill:#FFFFFF; fill-opacity:1.0; 
stroke:#FFFFFF; stroke-width:0; stroke-opacity:1; 
stroke-linecap:round; stroke-linejoin:round;">
<circle cx="1819.93" cy="5215.55" r="196.85" /> 
</g>
<g style="fill:#FFFFFF; fill-opacity:1.0; 
stroke:#FFFFFF; stroke-width:39.3701; stroke-opacity:1; 
stroke-linecap:round; stroke-linejoin:round;">
</g>
<g style="fill:#FFFFFF; fill-opacity:1.0; 
stroke:#FFFFFF; stroke-width:0; stroke-opacity:1; 
stroke-linecap:round; stroke-linejoin:round;">
<circle cx="1819.93" cy="4215.55" r="196.85" /> 
</g>
<g style="fill:#FFFFFF; fill-opacity:1.0; 
stroke:#FFFFFF; stroke-width:39.3701; stroke-opacity:1; 
stroke-linecap:round; stroke-linejoin:round;">
</g>
<g style="fill:#FFFFFF; fill-opacity:1.0; 
stroke:#FFFFFF; stroke-width:0; stroke-opacity:1; 
stroke-linecap:round; stroke-linejoin:round;">
<circle cx="1819.93" cy="3215.55" r="196.85" /> 
</g>
<g style="fill:#FFFFFF; fill-opacity:1.0; 
stroke:#FFFFFF; stroke-width:39.3701; stroke-opacity:1; 
stroke-linecap:round; stroke-linejoin:round;">
</g>
<g style="fill:#FFFFFF; fill-opacity:1.0; 
stroke:#FFFFFF; stroke-width:0; stroke-opacity:1; 
stroke-linecap:round; stroke-linejoin:round;">
<circle cx="1819.93" cy="2215.55" r="196.85" /> 
</g>
<g style="fill:#FFFFFF; fill-opacity:1.0; 
stroke:#FFFFFF; stroke-width:39.3701; stroke-opacity:1; 
stroke-linecap:round; stroke-linejoin:round;">
</g>
<g style="fill:#FFFFFF; fill-opacity:1.0; 
stroke:#FFFFFF; stroke-width:0; stroke-opacity:1; 
stroke-linecap:round; stroke-linejoin:round;">
<circle cx="1819.93" cy="1215.55" r="196.85" /> 
</g>
<g style="fill:#FFFFFF; fill-opacity:1.0; 
stroke:#FFFFFF; stroke-width:39.3701; stroke-opacity:1; 
stroke-linecap:round; stroke-linejoin:round;">
</g>
<g style="fill:#000000; fill-opacity:1.0; 
stroke:#000000; stroke-width:39.3701; stroke-opacity:1; 
stroke-linecap:round; stroke-linejoin:round;">
<g >
</g>
<g style="fill:#840000; fill-opacity:1.0; 
stroke:#840000; stroke-width:39.3701; stroke-opacity:1; 
stroke-linecap:round; stroke-linejoin:round;">
</g>
<g style="fill:#840000; fill-opacity:1.0; 
stroke:#840000; stroke-width:0; stroke-opacity:1; 
stroke-linecap:round; stroke-linejoin:round;">
<path style="fill:#840000; fill-opacity:1.0; 
stroke:#840000; stroke-width:0; stroke-opacity:1; 
stroke-linecap:round; stroke-linejoin:round;fill-rule:evenodd;"
d="M 5724.93,2747.73
5730.66,2748.58
5736.28,2749.98
5741.74,2751.94
5746.98,2754.41
5751.95,2757.39
5756.61,2760.85
5760.9,2764.74
5764.79,2769.03
5768.24,2773.69
5771.22,2778.66
5773.7,2783.9
5775.65,2789.35
5777.06,2794.97
5777.91,2800.71
5778.2,2806.5
5778.2,2924.61
5777.91,2930.39
5777.06,2936.13
5775.65,2941.75
5773.7,2947.21
5771.22,2952.44
5768.24,2957.42
5764.79,2962.07
5760.9,2966.36
5756.61,2970.26
5751.95,2973.71
5746.98,2976.69
5741.74,2979.17
5736.28,2981.12
5730.66,2982.53
5724.93,2983.38
5719.14,2983.66
5069.54,2983.66
5063.75,2983.38
5058.01,2982.53
5052.39,2981.12
5046.94,2979.17
5041.7,2976.69
5036.73,2973.71
5032.07,2970.26
5027.78,2966.36
5023.88,2962.07
5020.43,2957.42
5017.45,2952.44
5014.98,2947.21
5013.02,2941.75
5011.61,2936.13
5010.76,2930.39
5010.48,2924.61
5010.48,2806.5
5010.76,2800.71
5011.61,2794.97
5013.02,2789.35
5014.98,2783.9
5017.45,2778.66
5020.43,2773.69
5023.88,2769.03
5027.78,2764.74
5032.07,2760.85
5036.73,2757.39
5041.7,2754.41
5046.94,2751.94
5052.39,2749.98
5058.01,2748.58
5063.75,2747.73
5069.54,2747.44
5719.14,2747.44
Z" /> 
<path style="fill:#840000; fill-opacity:1.0; 
stroke:#840000; stroke-width:0; stroke-opacity:1; 
stroke-linecap:round; stroke-linejoin:round;fill-rule:evenodd;"
d="M 5724.93,3247.73
5730.66,3248.58
5736.28,3249.98
5741.74,3251.94
5746.98,3254.41
5751.95,3257.39
5756.61,3260.85
5760.9,3264.74
5764.79,3269.03
5768.24,3273.69
5771.22,3278.66
5773.7,3283.9
5775.65,3289.35
5777.06,3294.97
5777.91,3300.71
5778.2,3306.5
5778.2,3424.61
5777.91,3430.39
5777.06,3436.13
5775.65,3441.75
5773.7,3447.21
5771.22,3452.44
5768.24,3457.42
5764.79,3462.07
5760.9,3466.36
5756.61,3470.26
5751.95,3473.71
5746.98,3476.69
5741.74,3479.17
5736.28,3481.12
5730.66,3482.53
5724.93,3483.38
5719.14,3483.66
5069.54,3483.66
5063.75,3483.38
5058.01,3482.53
5052.39,3481.12
5046.94,3479.17
5041.7,3476.69
5036.73,3473.71
5032.07,3470.26
5027.78,3466.36
5023.88,3462.07
5020.43,3457.42
5017.45,3452.44
5014.98,3447.21
5013.02,3441.75
5011.61,3436.13
5010.76,3430.39
5010.48,3424.61
5010.48,3306.5
5010.76,3300.71
5011.61,3294.97
5013.02,3289.35
5014.98,3283.9
5017.45,3278.66
5020.43,3273.69
5023.88,3269.03
5027.78,3264.74
5032.07,3260.85
5036.73,3257.39
5041.7,3254.41
5046.94,3251.94
5052.39,3249.98
5058.01,3248.58
5063.75,3247.73
5069.54,3247.44
5719.14,3247.44
Z" /> 
<path style="fill:#840000; fill-opacity:1.0; 
stroke:#840000; stroke-width:0; stroke-opacity:1; 
stroke-linecap:round; stroke-linejoin:round;fill-rule:evenodd;"
d="M 5724.93,3747.73
5730.66,3748.58
5736.28,3749.98
5741.74,3751.94
5746.98,3754.41
5751.95,3757.39
5756.61,3760.85
5760.9,3764.74
5764.79,3769.03
5768.24,3773.69
5771.22,3778.66
5773.7,3783.9
5775.65,3789.35
5777.06,3794.97
5777.91,3800.71
5778.2,3806.5
5778.2,3924.61
5777.91,3930.39
5777.06,3936.13
5775.65,3941.75
5773.7,3947.21
5771.22,3952.44
5768.24,3957.42
5764.79,3962.07
5760.9,3966.36
5756.61,3970.26
5751.95,3973.71
5746.98,3976.69
5741.74,3979.17
5736.28,3981.12
5730.66,3982.53
5724.93,3983.38
5719.14,3983.66
5069.54,3983.66
5063.75,3983.38
5058.01,3982.53
5052.39,3981.12
5046.94,3979.17
5041.7,3976.69
5036.73,3973.71
5032.07,3970.26
5027.78,3966.36
5023.88,3962.07
5020.43,3957.42
5017.45,3952.44
5014.98,3947.21
5013.02,3941.75
5011.61,3936.13
5010.76,3930.39
5010.48,3924.61
5010.48,3806.5
5010.76,3800.71
5011.61,3794.97
5013.02,3789.35
5014.98,3783.9
5017.45,3778.66
5020.43,3773.69
5023.88,3769.03
5027.78,3764.74
5032.07,3760.85
5036.73,3757.39
5041.7,3754.41
5046.94,3751.94
5052.39,3749.98
5058.01,3748.58
5063.75,3747.73
5069.54,3747.44
5719.14,3747.44
Z" /> 
<path style="fill:#840000; fill-opacity:1.0; 
stroke:#840000; stroke-width:0; stroke-opacity:1; 
stroke-linecap:round; stroke-linejoin:round;fill-rule:evenodd;"
d="M 5724.93,4247.73
5730.66,4248.58
5736.28,4249.98
5741.74,4251.94
5746.98,4254.41
5751.95,4257.39
5756.61,4260.85
5760.9,4264.74
5764.79,4269.03
5768.24,4273.69
5771.22,4278.66
5773.7,4283.9
5775.65,4289.35
5777.06,4294.97
5777.91,4300.71
5778.2,4306.5
5778.2,4424.61
5777.91,4430.39
5777.06,4436.13
5775.65,4441.75
5773.7,4447.21
5771.22,4452.44
5768.24,4457.42
5764.79,4462.07
5760.9,4466.36
5756.61,4470.26
5751.95,4473.71
5746.98,4476.69
5741.74,4479.17
5736.28,4481.12
5730.66,4482.53
5724.93,4483.38
5719.14,4483.66
5069.54,4483.66
5063.75,4483.38
5058.01,4482.53
5052.39,4481.12
5046.94,4479.17
5041.7,4476.69
5036.73,4473.71
5032.07,4470.26
5027.78,4466.36
5023.88,4462.07
5020.43,4457.42
5017.45,4452.44
5014.98,4447.21
5013.02,4441.75
5011.61,4436.13
5010.76,4430.39
5010.48,4424.61
5010.48,4306.5
5010.76,4300.71
5011.61,4294.97
5013.02,4289.35
5014.98,4283.9
5017.45,4278.66
5020.43,4273.69
5023.88,4269.03
5027.78,4264.74
5032.07,4260.85
5036.73,4257.39
5041.7,4254.41
5046.94,4251.94
5052.39,4249.98
5058.01,4248.58
5063.75,4247.73
5069.54,4247.44
5719.14,4247.44
Z" /> 
<path style="fill:#840000; fill-opacity:1.0; 
stroke:#840000; stroke-width:0; stroke-opacity:1; 
stroke-linecap:round; stroke-linejoin:round;fill-rule:evenodd;"
d="M 5724.93,4747.73
5730.66,4748.58
5736.28,4749.98
5741.74,4751.94
5746.98,4754.41
5751.95,4757.39
5756.61,4760.85
5760.9,4764.74
5764.79,4769.03
5768.24,4773.69
5771.22,4778.66
5773.7,4783.9
5775.65,4789.35
5777.06,4794.97
5777.91,4800.71
5778.2,4806.5
5778.2,4924.61
5777.91,4930.39
5777.06,4936.13
5775.65,4941.75
5773.7,4947.21
5771.22,4952.44
5768.24,4957.42
5764.79,4962.07
5760.9,4966.36
5756.61,4970.26
5751.95,4973.71
5746.98,4976.69
5741.74,4979.17
5736.28,4981.12
5730.66,4982.53
5724.93,4983.38
5719.14,4983.66
5069.54,4983.66
5063.75,4983.38
5058.01,4982.53
5052.39,4981.12
5046.94,4979.17
5041.7,4976.69
5036.73,4973.71
5032.07,4970.26
5027.78,4966.36
5023.88,4962.07
5020.43,4957.42
5017.45,4952.44
5014.98,4947.21
5013.02,4941.75
5011.61,4936.13
5010.76,4930.39
5010.48,4924.61
5010.48,4806.5
5010.76,4800.71
5011.61,4794.97
5013.02,4789.35
5014.98,4783.9
5017.45,4778.66
5020.43,4773.69
5023.88,4769.03
5027.78,4764.74
5032.07,4760.85
5036.73,4757.39
5041.7,4754.41
5046.94,4751.94
5052.39,4749.98
5058.01,4748.58
5063.75,4747.73
5069.54,4747.44
5719.14,4747.44
Z" /> 
<path style="fill:#840000; fill-opacity:1.0; 
stroke:#840000; stroke-width:0; stroke-opacity:1; 
stroke-linecap:round; stroke-linejoin:round;fill-rule:evenodd;"
d="M 5724.93,5247.73
5730.66,5248.58
5736.28,5249.98
5741.74,5251.94
5746.98,5254.41
5751.95,5257.39
5756.61,5260.85
5760.9,5264.74
5764.79,5269.03
5768.24,5273.69
5771.22,5278.66
5773.7,5283.9
5775.65,5289.35
5777.06,5294.97
5777.91,5300.71
5778.2,5306.5
5778.2,5424.61
5777.91,5430.39
5777.06,5436.13
5775.65,5441.75
5773.7,5447.21
5771.22,5452.44
5768.24,5457.42
5764.79,5462.07
5760.9,5466.36
5756.61,5470.26
5751.95,5473.71
5746.98,5476.69
5741.74,5479.17
5736.28,5481.12
5730.66,5482.53
5724.93,5483.38
5719.14,5483.66
5069.54,5483.66
5063.75,5483.38
5058.01,5482.53
5052.39,5481.12
5046.94,5479.17
5041.7,5476.69
5036.73,5473.71
5032.07,5470.26
5027.78,5466.36
5023.88,5462.07
5020.43,5457.42
5017.45,5452.44
5014.98,5447.21
5013.02,5441.75
5011.61,5436.13
5010.76,5430.39
5010.48,5424.61
5010.48,5306.5
5010.76,5300.71
5011.61,5294.97
5013.02,5289.35
5014.98,5283.9
5017.45,5278.66
5020.43,5273.69
5023.88,5269.03
5027.78,5264.74
5032.07,5260.85
5036.73,5257.39
5041.7,5254.41
5046.94,5251.94
5052.39,5249.98
5058.01,5248.58
5063.75,5247.73
5069.54,5247.44
5719.14,5247.44
Z" /> 
<path style="fill:#840000; fill-opacity:1.0; 
stroke:#840000; stroke-width:0; stroke-opacity:1; 
stroke-linecap:round; stroke-linejoin:round;fill-rule:evenodd;"
d="M 5724.93,5747.73
5730.66,5748.58
5736.28,5749.98
5741.74,5751.94
5746.98,5754.41
5751.95,5757.39
5756.61,5760.85
5760.9,5764.74
5764.79,5769.03
5768.24,5773.69
5771.22,5778.66
5773.7,5783.9
5775.65,5789.35
5777.06,5794.97
5777.91,5800.71
5778.2,5806.5
5778.2,5924.61
5777.91,5930.39
5777.06,5936.13
5775.65,5941.75
5773.7,5947.21
5771.22,5952.44
5768.24,5957.42
5764.79,5962.07
5760.9,5966.36
5756.61,5970.26
5751.95,5973.71
5746.98,5976.69
5741.74,5979.17
5736.28,5981.12
5730.66,5982.53
5724.93,5983.38
5719.14,5983.66
5069.54,5983.66
5063.75,5983.38
5058.01,5982.53
5052.39,5981.12
5046.94,5979.17
5041.7,5976.69
5036.73,5973.71
5032.07,5970.26
5027.78,5966.36
5023.88,5962.07
5020.43,5957.42
5017.45,5952.44
5014.98,5947.21
5013.02,5941.75
5011.61,5936.13
5010.76,5930.39
5010.48,5924.61
5010.48,5806.5
5010.76,5800.71
5011.61,5794.97
5013.02,5789.35
5014.98,5783.9
5017.45,5778.66
5020.43,5773.69
5023.88,5769.03
5027.78,5764.74
5032.07,5760.85
5036.73,5757.39
5041.7,5754.41
5046.94,5751.94
5052.39,5749.98
5058.01,5748.58
5063.75,5747.73
5069.54,5747.44
5719.14,5747.44
Z" /> 
<path style="fill:#840000; fill-opacity:1.0; 
stroke:#840000; stroke-width:0; stroke-opacity:1; 
stroke-linecap:round; stroke-linejoin:round;fill-rule:evenodd;"
d="M 5724.93,6247.73
5730.66,6248.58
5736.28,6249.98
5741.74,6251.94
5746.98,6254.41
5751.95,6257.39
5756.61,6260.85
5760.9,6264.74
5764.79,6269.03
5768.24,6273.69
5771.22,6278.66
5773.7,6283.9
5775.65,6289.35
5777.06,6294.97
5777.91,6300.71
5778.2,6306.5
5778.2,6424.61
5777.91,6430.39
5777.06,6436.13
5775.65,6441.75
5773.7,6447.21
5771.22,6452.44
5768.24,6457.42
5764.79,6462.07
5760.9,6466.36
5756.61,6470.26
5751.95,6473.71
5746.98,6476.69
5741.74,6479.17
5736.28,6481.12
5730.66,6482.53
5724.93,6483.38
5719.14,6483.66
5069.54,6483.66
5063.75,6483.38
5058.01,6482.53
5052.39,6481.12
5046.94,6479.17
5041.7,6476.69
5036.73,6473.71
5032.07,6470.26
5027.78,6466.36
5023.88,6462.07
5020.43,6457.42
5017.45,6452.44
5014.98,6447.21
5013.02,6441.75
5011.61,6436.13
5010.76,6430.39
5010.48,6424.61
5010.48,6306.5
5010.76,6300.71
5011.61,6294.97
5013.02,6289.35
5014.98,6283.9
5017.45,6278.66
5020.43,6273.69
5023.88,6269.03
5027.78,6264.74
5032.07,6260.85
5036.73,6257.39
5041.7,6254.41
5046.94,6251.94
5052.39,6249.98
5058.01,6248.58
5063.75,6247.73
5069.54,6247.44
5719.14,6247.44
Z" /> 
<path style="fill:#840000; fill-opacity:1.0; 
stroke:#840000; stroke-width:0; stroke-opacity:1; 
stroke-linecap:round; stroke-linejoin:round;fill-rule:evenodd;"
d="M 3776.11,6247.73
3781.84,6248.58
3787.47,6249.98
3792.92,6251.94
3798.16,6254.41
3803.13,6257.39
3807.79,6260.85
3812.08,6264.74
3815.97,6269.03
3819.42,6273.69
3822.4,6278.66
3824.88,6283.9
3826.83,6289.35
3828.24,6294.97
3829.09,6300.71
3829.38,6306.5
3829.38,6424.61
3829.09,6430.39
3828.24,6436.13
3826.83,6441.75
3824.88,6447.21
3822.4,6452.44
3819.42,6457.42
3815.97,6462.07
3812.08,6466.36
3807.79,6470.26
3803.13,6473.71
3798.16,6476.69
3792.92,6479.17
3787.47,6481.12
3781.84,6482.53
3776.11,6483.38
3770.32,6483.66
3120.72,6483.66
3114.93,6483.38
3109.19,6482.53
3103.57,6481.12
3098.12,6479.17
3092.88,6476.69
3087.91,6473.71
3083.25,6470.26
3078.96,6466.36
3075.07,6462.07
3071.61,6457.42
3068.63,6452.44
3066.16,6447.21
3064.2,6441.75
3062.8,6436.13
3061.95,6430.39
3061.66,6424.61
3061.66,6306.5
3061.95,6300.71
3062.8,6294.97
3064.2,6289.35
3066.16,6283.9
3068.63,6278.66
3071.61,6273.69
3075.07,6269.03
3078.96,6264.74
3083.25,6260.85
3087.91,6257.39
3092.88,6254.41
3098.12,6251.94
3103.57,6249.98
3109.19,6248.58
3114.93,6247.73
3120.72,6247.44
3770.32,6247.44
Z" /> 
<path style="fill:#840000; fill-opacity:1.0; 
stroke:#840000; stroke-width:0; stroke-opacity:1; 
stroke-linecap:round; stroke-linejoin:round;fill-rule:evenodd;"
d="M 3776.11,5747.73
3781.84,5748.58
3787.47,5749.98
3792.92,5751.94
3798.16,5754.41
3803.13,5757.39
3807.79,5760.85
3812.08,5764.74
3815.97,5769.03
3819.42,5773.69
3822.4,5778.66
3824.88,5783.9
3826.83,5789.35
3828.24,5794.97
3829.09,5800.71
3829.38,5806.5
3829.38,5924.61
3829.09,5930.39
3828.24,5936.13
3826.83,5941.75
3824.88,5947.21
3822.4,5952.44
3819.42,5957.42
3815.97,5962.07
3812.08,5966.36
3807.79,5970.26
3803.13,5973.71
3798.16,5976.69
3792.92,5979.17
3787.47,5981.12
3781.84,5982.53
3776.11,5983.38
3770.32,5983.66
3120.72,5983.66
3114.93,5983.38
3109.19,5982.53
3103.57,5981.12
3098.12,5979.17
3092.88,5976.69
3087.91,5973.71
3083.25,5970.26
3078.96,5966.36
3075.07,5962.07
3071.61,5957.42
3068.63,5952.44
3066.16,5947.21
3064.2,5941.75
3062.8,5936.13
3061.95,5930.39
3061.66,5924.61
3061.66,5806.5
3061.95,5800.71
3062.8,5794.97
3064.2,5789.35
3066.16,5783.9
3068.63,5778.66
3071.61,5773.69
3075.07,5769.03
3078.96,5764.74
3083.25,5760.85
3087.91,5757.39
3092.88,5754.41
3098.12,5751.94
3103.57,5749.98
3109.19,5748.58
3114.93,5747.73
3120.72,5747.44
3770.32,5747.44
Z" /> 
<path style="fill:#840000; fill-opacity:1.0; 
stroke:#840000; stroke-width:0; stroke-opacity:1; 
stroke-linecap:round; stroke-linejoin:round;fill-rule:evenodd;"
d="M 3776.11,5247.73
3781.84,5248.58
3787.47,5249.98
3792.92,5251.94
3798.16,5254.41
3803.13,5257.39
3807.79,5260.85
3812.08,5264.74
3815.97,5269.03
3819.42,5273.69
3822.4,5278.66
3824.88,5283.9
3826.83,5289.35
3828.24,5294.97
3829.09,5300.71
3829.38,5306.5
3829.38,5424.61
3829.09,5430.39
3828.24,5436.13
3826.83,5441.75
3824.88,5447.21
3822.4,5452.44
3819.42,5457.42
3815.97,5462.07
3812.08,5466.36
3807.79,5470.26
3803.13,5473.71
3798.16,5476.69
3792.92,5479.17
3787.47,5481.12
3781.84,5482.53
3776.11,5483.38
3770.32,5483.66
3120.72,5483.66
3114.93,5483.38
3109.19,5482.53
3103.57,5481.12
3098.12,5479.17
3092.88,5476.69
3087.91,5473.71
3083.25,5470.26
3078.96,5466.36
3075.07,5462.07
3071.61,5457.42
3068.63,5452.44
3066.16,5447.21
3064.2,5441.75
3062.8,5436.13
3061.95,5430.39
3061.66,5424.61
3061.66,5306.5
3061.95,5300.71
3062.8,5294.97
3064.2,5289.35
3066.16,5283.9
3068.63,5278.66
3071.61,5273.69
3075.07,5269.03
3078.96,5264.74
3083.25,5260.85
3087.91,5257.39
3092.88,5254.41
3098.12,5251.94
3103.57,5249.98
3109.19,5248.58
3114.93,5247.73
3120.72,5247.44
3770.32,5247.44
Z" /> 
<path style="fill:#840000; fill-opacity:1.0; 
stroke:#840000; stroke-width:0; stroke-opacity:1; 
stroke-linecap:round; stroke-linejoin:round;fill-rule:evenodd;"
d="M 3776.11,4747.73
3781.84,4748.58
3787.47,4749.98
3792.92,4751.94
3798.16,4754.41
3803.13,4757.39
3807.79,4760.85
3812.08,4764.74
3815.97,4769.03
3819.42,4773.69
3822.4,4778.66
3824.88,4783.9
3826.83,4789.35
3828.24,4794.97
3829.09,4800.71
3829.38,4806.5
3829.38,4924.61
3829.09,4930.39
3828.24,4936.13
3826.83,4941.75
3824.88,4947.21
3822.4,4952.44
3819.42,4957.42
3815.97,4962.07
3812.08,4966.36
3807.79,4970.26
3803.13,4973.71
3798.16,4976.69
3792.92,4979.17
3787.47,4981.12
3781.84,4982.53
3776.11,4983.38
3770.32,4983.66
3120.72,4983.66
3114.93,4983.38
3109.19,4982.53
3103.57,4981.12
3098.12,4979.17
3092.88,4976.69
3087.91,4973.71
3083.25,4970.26
3078.96,4966.36
3075.07,4962.07
3071.61,4957.42
3068.63,4952.44
3066.16,4947.21
3064.2,4941.75
3062.8,4936.13
3061.95,4930.39
3061.66,4924.61
3061.66,4806.5
3061.95,4800.71
3062.8,4794.97
3064.2,4789.35
3066.16,4783.9
3068.63,4778.66
3071.61,4773.69
3075.07,4769.03
3078.96,4764.74
3083.25,4760.85
3087.91,4757.39
3092.88,4754.41
3098.12,4751.94
3103.57,4749.98
3109.19,4748.58
3114.93,4747.73
3120.72,4747.44
3770.32,4747.44
Z" /> 
<path style="fill:#840000; fill-opacity:1.0; 
stroke:#840000; stroke-width:0; stroke-opacity:1; 
stroke-linecap:round; stroke-linejoin:round;fill-rule:evenodd;"
d="M 3776.11,4247.73
3781.84,4248.58
3787.47,4249.98
3792.92,4251.94
3798.16,4254.41
3803.13,4257.39
3807.79,4260.85
3812.08,4264.74
3815.97,4269.03
3819.42,4273.69
3822.4,4278.66
3824.88,4283.9
3826.83,4289.35
3828.24,4294.97
3829.09,4300.71
3829.38,4306.5
3829.38,4424.61
3829.09,4430.39
3828.24,4436.13
3826.83,4441.75
3824.88,4447.21
3822.4,4452.44
3819.42,4457.42
3815.97,4462.07
3812.08,4466.36
3807.79,4470.26
3803.13,4473.71
3798.16,4476.69
3792.92,4479.17
3787.47,4481.12
3781.84,4482.53
3776.11,4483.38
3770.32,4483.66
3120.72,4483.66
3114.93,4483.38
3109.19,4482.53
3103.57,4481.12
3098.12,4479.17
3092.88,4476.69
3087.91,4473.71
3083.25,4470.26
3078.96,4466.36
3075.07,4462.07
3071.61,4457.42
3068.63,4452.44
3066.16,4447.21
3064.2,4441.75
3062.8,4436.13
3061.95,4430.39
3061.66,4424.61
3061.66,4306.5
3061.95,4300.71
3062.8,4294.97
3064.2,4289.35
3066.16,4283.9
3068.63,4278.66
3071.61,4273.69
3075.07,4269.03
3078.96,4264.74
3083.25,4260.85
3087.91,4257.39
3092.88,4254.41
3098.12,4251.94
3103.57,4249.98
3109.19,4248.58
3114.93,4247.73
3120.72,4247.44
3770.32,4247.44
Z" /> 
<path style="fill:#840000; fill-opacity:1.0; 
stroke:#840000; stroke-width:0; stroke-opacity:1; 
stroke-linecap:round; stroke-linejoin:round;fill-rule:evenodd;"
d="M 3776.11,3747.73
3781.84,3748.58
3787.47,3749.98
3792.92,3751.94
3798.16,3754.41
3803.13,3757.39
3807.79,3760.85
3812.08,3764.74
3815.97,3769.03
3819.42,3773.69
3822.4,3778.66
3824.88,3783.9
3826.83,3789.35
3828.24,3794.97
3829.09,3800.71
3829.38,3806.5
3829.38,3924.61
3829.09,3930.39
3828.24,3936.13
3826.83,3941.75
3824.88,3947.21
3822.4,3952.44
3819.42,3957.42
3815.97,3962.07
3812.08,3966.36
3807.79,3970.26
3803.13,3973.71
3798.16,3976.69
3792.92,3979.17
3787.47,3981.12
3781.84,3982.53
3776.11,3983.38
3770.32,3983.66
3120.72,3983.66
3114.93,3983.38
3109.19,3982.53
3103.57,3981.12
3098.12,3979.17
3092.88,3976.69
3087.91,3973.71
3083.25,3970.26
3078.96,3966.36
3075.07,3962.07
3071.61,3957.42
3068.63,3952.44
3066.16,3947.21
3064.2,3941.75
3062.8,3936.13
3061.95,3930.39
3061.66,3924.61
3061.66,3806.5
3061.95,3800.71
3062.8,3794.97
3064.2,3789.35
3066.16,3783.9
3068.63,3778.66
3071.61,3773.69
3075.07,3769.03
3078.96,3764.74
3083.25,3760.85
3087.91,3757.39
3092.88,3754.41
3098.12,3751.94
3103.57,3749.98
3109.19,3748.58
3114.93,3747.73
3120.72,3747.44
3770.32,3747.44
Z" /> 
<path style="fill:#840000; fill-opacity:1.0; 
stroke:#840000; stroke-width:0; stroke-opacity:1; 
stroke-linecap:round; stroke-linejoin:round;fill-rule:evenodd;"
d="M 3776.11,3247.73
3781.84,3248.58
3787.47,3249.98
3792.92,3251.94
3798.16,3254.41
3803.13,3257.39
3807.79,3260.85
3812.08,3264.74
3815.97,3269.03
3819.42,3273.69
3822.4,3278.66
3824.88,3283.9
3826.83,3289.35
3828.24,3294.97
3829.09,3300.71
3829.38,3306.5
3829.38,3424.61
3829.09,3430.39
3828.24,3436.13
3826.83,3441.75
3824.88,3447.21
3822.4,3452.44
3819.42,3457.42
3815.97,3462.07
3812.08,3466.36
3807.79,3470.26
3803.13,3473.71
3798.16,3476.69
3792.92,3479.17
3787.47,3481.12
3781.84,3482.53
3776.11,3483.38
3770.32,3483.66
3120.72,3483.66
3114.93,3483.38
3109.19,3482.53
3103.57,3481.12
3098.12,3479.17
3092.88,3476.69
3087.91,3473.71
3083.25,3470.26
3078.96,3466.36
3075.07,3462.07
3071.61,3457.42
3068.63,3452.44
3066.16,3447.21
3064.2,3441.75
3062.8,3436.13
3061.95,3430.39
3061.66,3424.61
3061.66,3306.5
3061.95,3300.71
3062.8,3294.97
3064.2,3289.35
3066.16,3283.9
3068.63,3278.66
3071.61,3273.69
3075.07,3269.03
3078.96,3264.74
3083.25,3260.85
3087.91,3257.39
3092.88,3254.41
3098.12,3251.94
3103.57,3249.98
3109.19,3248.58
3114.93,3247.73
3120.72,3247.44
3770.32,3247.44
Z" /> 
<path style="fill:#840000; fill-opacity:1.0; 
stroke:#840000; stroke-width:0; stroke-opacity:1; 
stroke-linecap:round; stroke-linejoin:round;fill-rule:evenodd;"
d="M 3776.11,2747.73
3781.84,2748.58
3787.47,2749.98
3792.92,2751.94
3798.16,2754.41
3803.13,2757.39
3807.79,2760.85
3812.08,2764.74
3815.97,2769.03
3819.42,2773.69
3822.4,2778.66
3824.88,2783.9
3826.83,2789.35
3828.24,2794.97
3829.09,2800.71
3829.38,2806.5
3829.38,2924.61
3829.09,2930.39
3828.24,2936.13
3826.83,2941.75
3824.88,2947.21
3822.4,2952.44
3819.42,2957.42
3815.97,2962.07
3812.08,2966.36
3807.79,2970.26
3803.13,2973.71
3798.16,2976.69
3792.92,2979.17
3787.47,2981.12
3781.84,2982.53
3776.11,2983.38
3770.32,2983.66
3120.72,2983.66
3114.93,2983.38
3109.19,2982.53
3103.57,2981.12
3098.12,2979.17
3092.88,2976.69
3087.91,2973.71
3083.25,2970.26
3078.96,2966.36
3075.07,2962.07
3071.61,2957.42
3068.63,2952.44
3066.16,2947.21
3064.2,2941.75
3062.8,2936.13
3061.95,2930.39
3061.66,2924.61
3061.66,2806.5
3061.95,2800.71
3062.8,2794.97
3064.2,2789.35
3066.16,2783.9
3068.63,2778.66
3071.61,2773.69
3075.07,2769.03
3078.96,2764.74
3083.25,2760.85
3087.91,2757.39
3092.88,2754.41
3098.12,2751.94
3103.57,2749.98
3109.19,2748.58
3114.93,2747.73
3120.72,2747.44
3770.32,2747.44
Z" /> 
</g>
<g >
</g>
<g style="fill:#848400; fill-opacity:1.0; 
stroke:#848400; stroke-width:0; stroke-opacity:1; 
stroke-linecap:round; stroke-linejoin:round;">
<circle cx="6819.93" cy="8215.55" r="334.646" /> 
<circle cx="6819.93" cy="7215.55" r="334.646" /> 
<circle cx="6819.93" cy="6215.55" r="334.646" /> 
<circle cx="6819.93" cy="5215.55" r="334.646" /> 
<circle cx="6819.93" cy="4215.55" r="334.646" /> 
<circle cx="6819.93" cy="3215.55" r="334.646" /> 
<circle cx="6819.93" cy="2215.55" r="334.646" /> 
<path style="fill:#848400; fill-opacity:1.0; 
stroke:#848400; stroke-width:0; stroke-opacity:1; 
stroke-linecap:round; stroke-linejoin:round;fill-rule:evenodd;"
d="M 6485.28,1550.2
6485.28,880.906
7154.57,880.906
7154.57,1550.2
Z" /> 
</g>
<g >
</g>
<g style="fill:#848400; fill-opacity:1.0; 
stroke:#848400; stroke-width:0; stroke-opacity:1; 
stroke-linecap:round; stroke-linejoin:round;">
<circle cx="1819.93" cy="8215.55" r="334.646" /> 
<circle cx="1819.93" cy="7215.55" r="334.646" /> 
<circle cx="1819.93" cy="6215.55" r="334.646" /> 
<circle cx="1819.93" cy="5215.55" r="334.646" /> 
<circle cx="1819.93" cy="4215.55" r="334.646" /> 
<circle cx="1819.93" cy="3215.55" r="334.646" /> 
<circle cx="1819.93" cy="2215.55" r="334.646" /> 
<path style="fill:#848400; fill-opacity:1.0; 
stroke:#848400; stroke-width:0; stroke-opacity:1; 
stroke-linecap:round; stroke-linejoin:round;fill-rule:evenodd;"
d="M 1485.28,1550.2
1485.28,880.906
2154.57,880.906
2154.57,1550.2
Z" /> 
</g>
<g >
</g>
<g >
</g>
<g style="fill:#840000; fill-opacity:1.0; 
stroke:#840000; stroke-width:0; stroke-opacity:1; 
stroke-linecap:round; stroke-linejoin:round;">
</g>
<g style="fill:#840000; fill-opacity:1.0; 
stroke:#840000; stroke-width:196.85; stroke-opacity:1; 
stroke-linecap:round; stroke-linejoin:round;">
</g>
<g style="fill:#840000; fill-opacity:0.0; 
stroke:#840000; stroke-width:196.85; stroke-opacity:1; 
stroke-linecap:round; stroke-linejoin:round;">
<path d="M3445 6589
L1819 8215
" />
<path d="M3445 6365
L3445 6589
" />
<path d="M1819 7107
L1819 7215
" />
<path d="M3061 5865
L1819 7107
" />
<path d="M3445 5865
L3061 5865
" />
<path d="M2211 6215
L1819 6215
" />
<path d="M3061 5365
L2211 6215
" />
<path d="M3445 5365
L3061 5365
" />
<path d="M2169 4865
L1819 5215
" />
<path d="M3445 4865
L2169 4865
" />
<path d="M1969 4365
L1819 4215
" />
<path d="M3445 4365
L1969 4365
" />
<path d="M2469 3865
L1819 3215
" />
<path d="M3445 3865
L2469 3865
" />
<path d="M1911 2215
L1819 2215
" />
<path d="M3061 3365
L1911 2215
" />
<path d="M3445 3365
L3061 3365
" />
<path d="M1819 1239
L1819 1215
" />
<path d="M3445 2865
L1819 1239
" />
<path d="M5394 6789
L6819 8215
" />
<path d="M5394 6365
L5394 6789
" />
<path d="M6819 7073
L6819 7215
" />
<path d="M5612 5865
L6819 7073
" />
<path d="M5394 5865
L5612 5865
" />
<path d="M5969 5365
L6819 6215
" />
<path d="M5394 5365
L5969 5365
" />
<path d="M6469 4865
L6819 5215
" />
<path d="M5394 4865
L6469 4865
" />
<path d="M6669 4365
L6819 4215
" />
<path d="M5394 4365
L6669 4365
" />
<path d="M6169 3865
L6819 3215
" />
<path d="M5394 3865
L6169 3865
" />
<path d="M5669 3365
L6819 2215
" />
<path d="M5394 3365
L5669 3365
" />
<path d="M5394 2641
L6819 1215
" />
<path d="M5394 2865
L5394 2641
" />
</g>
<g >
</g>
</g>
<g style="fill:#FFFFFF; fill-opacity:0.0; 
stroke:#FFFFFF; stroke-width:196.85; stroke-opacity:1; 
stroke-linecap:round; stroke-linejoin:round;">
</g>
<g style="fill:#FFFFFF; fill-opacity:1.0; 
stroke:#FFFFFF; stroke-width:0; stroke-opacity:1; 
stroke-linecap:round; stroke-linejoin:round;">
<circle cx="6819.93" cy="8215.55" r="196.85" /> 
</g>
<g style="fill:#FFFFFF; fill-opacity:1.0; 
stroke:#FFFFFF; stroke-width:39.3701; stroke-opacity:1; 
stroke-linecap:round; stroke-linejoin:round;">
</g>
<g style="fill:#FFFFFF; fill-opacity:1.0; 
stroke:#FFFFFF; stroke-width:0; stroke-opacity:1; 
stroke-linecap:round; stroke-linejoin:round;">
<circle cx="6819.93" cy="7215.55" r="196.85" /> 
</g>
<g style="fill:#FFFFFF; fill-opacity:1.0; 
stroke:#FFFFFF; stroke-width:39.3701; stroke-opacity:1; 
stroke-linecap:round; stroke-linejoin:round;">
</g>
<g style="fill:#FFFFFF; fill-opacity:1.0; 
stroke:#FFFFFF; stroke-width:0; stroke-opacity:1; 
stroke-linecap:round; stroke-linejoin:round;">
<circle cx="6819.93" cy="6215.55" r="196.85" /> 
</g>
<g style="fill:#FFFFFF; fill-opacity:1.0; 
stroke:#FFFFFF; stroke-width:39.3701; stroke-opacity:1; 
stroke-linecap:round; stroke-linejoin:round;">
</g>
<g style="fill:#FFFFFF; fill-opacity:1.0; 
stroke:#FFFFFF; stroke-width:0; stroke-opacity:1; 
stroke-linecap:round; stroke-linejoin:round;">
<circle cx="6819.93" cy="5215.55" r="196.85" /> 
</g>
<g style="fill:#FFFFFF; fill-opacity:1.0; 
stroke:#FFFFFF; stroke-width:39.3701; stroke-opacity:1; 
stroke-linecap:round; stroke-linejoin:round;">
</g>
<g style="fill:#FFFFFF; fill-opacity:1.0; 
stroke:#FFFFFF; stroke-width:0; stroke-opacity:1; 
stroke-linecap:round; stroke-linejoin:round;">
<circle cx="6819.93" cy="4215.55" r="196.85" /> 
</g>
<g style="fill:#FFFFFF; fill-opacity:1.0; 
stroke:#FFFFFF; stroke-width:39.3701; stroke-opacity:1; 
stroke-linecap:round; stroke-linejoin:round;">
</g>
<g style="fill:#FFFFFF; fill-opacity:1.0; 
stroke:#FFFFFF; stroke-width:0; stroke-opacity:1; 
stroke-linecap:round; stroke-linejoin:round;">
<circle cx="6819.93" cy="3215.55" r="196.85" /> 
</g>
<g style="fill:#FFFFFF; fill-opacity:1.0; 
stroke:#FFFFFF; stroke-width:39.3701; stroke-opacity:1; 
stroke-linecap:round; stroke-linejoin:round;">
</g>
<g style="fill:#FFFFFF; fill-opacity:1.0; 
stroke:#FFFFFF; stroke-width:0; stroke-opacity:1; 
stroke-linecap:round; stroke-linejoin:round;">
<circle cx="6819.93" cy="2215.55" r="196.85" /> 
</g>
<g style="fill:#FFFFFF; fill-opacity:1.0; 
stroke:#FFFFFF; stroke-width:39.3701; stroke-opacity:1; 
stroke-linecap:round; stroke-linejoin:round;">
</g>
<g style="fill:#FFFFFF; fill-opacity:1.0; 
stroke:#FFFFFF; stroke-width:0; stroke-opacity:1; 
stroke-linecap:round; stroke-linejoin:round;">
<circle cx="6819.93" cy="1215.55" r="196.85" /> 
</g>
<g style="fill:#FFFFFF; fill-opacity:1.0; 
stroke:#FFFFFF; stroke-width:39.3701; stroke-opacity:1; 
stroke-linecap:round; stroke-linejoin:round;">
</g>
<g style="fill:#FFFFFF; fill-opacity:1.0; 
stroke:#FFFFFF; stroke-width:0; stroke-opacity:1; 
stroke-linecap:round; stroke-linejoin:round;">
<circle cx="1819.93" cy="8215.55" r="196.85" /> 
</g>
<g style="fill:#FFFFFF; fill-opacity:1.0; 
stroke:#FFFFFF; stroke-width:39.3701; stroke-opacity:1; 
stroke-linecap:round; stroke-linejoin:round;">
</g>
<g style="fill:#FFFFFF; fill-opacity:1.0; 
stroke:#FFFFFF; stroke-width:0; stroke-opacity:1; 
stroke-linecap:round; stroke-linejoin:round;">
<circle cx="1819.93" cy="7215.55" r="196.85" /> 
</g>
<g style="fill:#FFFFFF; fill-opacity:1.0; 
stroke:#FFFFFF; stroke-width:39.3701; stroke-opacity:1; 
stroke-linecap:round; stroke-linejoin:round;">
</g>
<g style="fill:#FFFFFF; fill-opacity:1.0; 
stroke:#FFFFFF; stroke-width:0; stroke-opacity:1; 
stroke-linecap:round; stroke-linejoin:round;">
<circle cx="1819.93" cy="6215.55" r="196.85" /> 
</g>
<g style="fill:#FFFFFF; fill-opacity:1.0; 
stroke:#FFFFFF; stroke-width:39.3701; stroke-opacity:1; 
stroke-linecap:round; stroke-linejoin:round;">
</g>
<g style="fill:#FFFFFF; fill-opacity:1.0; 
stroke:#FFFFFF; stroke-width:0; stroke-opacity:1; 
stroke-linecap:round; stroke-linejoin:round;">
<circle cx="1819.93" cy="5215.55" r="196.85" /> 
</g>
<g style="fill:#FFFFFF; fill-opacity:1.0; 
stroke:#FFFFFF; stroke-width:39.3701; stroke-opacity:1; 
stroke-linecap:round; stroke-linejoin:round;">
</g>
<g style="fill:#FFFFFF; fill-opacity:1.0; 
stroke:#FFFFFF; stroke-width:0; stroke-opacity:1; 
stroke-linecap:round; stroke-linejoin:round;">
<circle cx="1819.93" cy="4215.55" r="196.85" /> 
</g>
<g style="fill:#FFFFFF; fill-opacity:1.0; 
stroke:#FFFFFF; stroke-width:39.3701; stroke-opacity:1; 
stroke-linecap:round; stroke-linejoin:round;">
</g>
<g style="fill:#FFFFFF; fill-opacity:1.0; 
stroke:#FFFFFF; stroke-width:0; stroke-opacity:1; 
stroke-linecap:round; stroke-linejoin:round;">
<circle cx="1819.93" cy="3215.55" r="196.85" /> 
</g>
<g style="fill:#FFFFFF; fill-opacity:1.0; 
stroke:#FFFFFF; stroke-width:39.3701; stroke-opacity:1; 
stroke-linecap:round; stroke-linejoin:round;">
</g>
<g style="fill:#FFFFFF; fill-opacity:1.0; 
stroke:#FFFFFF; stroke-width:0; stroke-opacity:1; 
stroke-linecap:round; stroke-linejoin:round;">
<circle cx="1819.93" cy="2215.55" r="196.85" /> 
</g>
<g style="fill:#FFFFFF; fill-opacity:1.0; 
stroke:#FFFFFF; stroke-width:39.3701; stroke-opacity:1; 
stroke-linecap:round; stroke-linejoin:round;">
</g>
<g style="fill:#FFFFFF; fill-opacity:1.0; 
stroke:#FFFFFF; stroke-width:0; stroke-opacity:1; 
stroke-linecap:round; stroke-linejoin:round;">
<circle cx="1819.93" cy="1215.55" r="196.85" /> 
</g>
<g style="fill:#FFFFFF; fill-opacity:1.0; 
stroke:#FFFFFF; stroke-width:39.3701; stroke-opacity:1; 
stroke-linecap:round; stroke-linejoin:round;">
</g>
<g style="fill:#000000; fill-opacity:1.0; 
stroke:#000000; stroke-width:39.3701; stroke-opacity:1; 
stroke-linecap:round; stroke-linejoin:round;">
<g >
</g>
<g style="fill:#840000; fill-opacity:1.0; 
stroke:#840000; stroke-width:39.3701; stroke-opacity:1; 
stroke-linecap:round; stroke-linejoin:round;">
</g>
<g style="fill:#840000; fill-opacity:1.0; 
stroke:#840000; stroke-width:0; stroke-opacity:1; 
stroke-linecap:round; stroke-linejoin:round;">
<path style="fill:#840000; fill-opacity:1.0; 
stroke:#840000; stroke-width:0; stroke-opacity:1; 
stroke-linecap:round; stroke-linejoin:round;fill-rule:evenodd;"
d="M 5724.93,2747.73
5730.66,2748.58
5736.28,2749.98
5741.74,2751.94
5746.98,2754.41
5751.95,2757.39
5756.61,2760.85
5760.9,2764.74
5764.79,2769.03
5768.24,2773.69
5771.22,2778.66
5773.7,2783.9
5775.65,2789.35
5777.06,2794.97
5777.91,2800.71
5778.2,2806.5
5778.2,2924.61
5777.91,2930.39
5777.06,2936.13
5775.65,2941.75
5773.7,2947.21
5771.22,2952.44
5768.24,2957.42
5764.79,2962.07
5760.9,2966.36
5756.61,2970.26
5751.95,2973.71
5746.98,2976.69
5741.74,2979.17
5736.28,2981.12
5730.66,2982.53
5724.93,2983.38
5719.14,2983.66
5069.54,2983.66
5063.75,2983.38
5058.01,2982.53
5052.39,2981.12
5046.94,2979.17
5041.7,2976.69
5036.73,2973.71
5032.07,2970.26
5027.78,2966.36
5023.88,2962.07
5020.43,2957.42
5017.45,2952.44
5014.98,2947.21
5013.02,2941.75
5011.61,2936.13
5010.76,2930.39
5010.48,2924.61
5010.48,2806.5
5010.76,2800.71
5011.61,2794.97
5013.02,2789.35
5014.98,2783.9
5017.45,2778.66
5020.43,2773.69
5023.88,2769.03
5027.78,2764.74
5032.07,2760.85
5036.73,2757.39
5041.7,2754.41
5046.94,2751.94
5052.39,2749.98
5058.01,2748.58
5063.75,2747.73
5069.54,2747.44
5719.14,2747.44
Z" /> 
<path style="fill:#840000; fill-opacity:1.0; 
stroke:#840000; stroke-width:0; stroke-opacity:1; 
stroke-linecap:round; stroke-linejoin:round;fill-rule:evenodd;"
d="M 5724.93,3247.73
5730.66,3248.58
5736.28,3249.98
5741.74,3251.94
5746.98,3254.41
5751.95,3257.39
5756.61,3260.85
5760.9,3264.74
5764.79,3269.03
5768.24,3273.69
5771.22,3278.66
5773.7,3283.9
5775.65,3289.35
5777.06,3294.97
5777.91,3300.71
5778.2,3306.5
5778.2,3424.61
5777.91,3430.39
5777.06,3436.13
5775.65,3441.75
5773.7,3447.21
5771.22,3452.44
5768.24,3457.42
5764.79,3462.07
5760.9,3466.36
5756.61,3470.26
5751.95,3473.71
5746.98,3476.69
5741.74,3479.17
5736.28,3481.12
5730.66,3482.53
5724.93,3483.38
5719.14,3483.66
5069.54,3483.66
5063.75,3483.38
5058.01,3482.53
5052.39,3481.12
5046.94,3479.17
5041.7,3476.69
5036.73,3473.71
5032.07,3470.26
5027.78,3466.36
5023.88,3462.07
5020.43,3457.42
5017.45,3452.44
5014.98,3447.21
5013.02,3441.75
5011.61,3436.13
5010.76,3430.39
5010.48,3424.61
5010.48,3306.5
5010.76,3300.71
5011.61,3294.97
5013.02,3289.35
5014.98,3283.9
5017.45,3278.66
5020.43,3273.69
5023.88,3269.03
5027.78,3264.74
5032.07,3260.85
5036.73,3257.39
5041.7,3254.41
5046.94,3251.94
5052.39,3249.98
5058.01,3248.58
5063.75,3247.73
5069.54,3247.44
5719.14,3247.44
Z" /> 
<path style="fill:#840000; fill-opacity:1.0; 
stroke:#840000; stroke-width:0; stroke-opacity:1; 
stroke-linecap:round; stroke-linejoin:round;fill-rule:evenodd;"
d="M 5724.93,3747.73
5730.66,3748.58
5736.28,3749.98
5741.74,3751.94
5746.98,3754.41
5751.95,3757.39
5756.61,3760.85
5760.9,3764.74
5764.79,3769.03
5768.24,3773.69
5771.22,3778.66
5773.7,3783.9
5775.65,3789.35
5777.06,3794.97
5777.91,3800.71
5778.2,3806.5
5778.2,3924.61
5777.91,3930.39
5777.06,3936.13
5775.65,3941.75
5773.7,3947.21
5771.22,3952.44
5768.24,3957.42
5764.79,3962.07
5760.9,3966.36
5756.61,3970.26
5751.95,3973.71
5746.98,3976.69
5741.74,3979.17
5736.28,3981.12
5730.66,3982.53
5724.93,3983.38
5719.14,3983.66
5069.54,3983.66
5063.75,3983.38
5058.01,3982.53
5052.39,3981.12
5046.94,3979.17
5041.7,3976.69
5036.73,3973.71
5032.07,3970.26
5027.78,3966.36
5023.88,3962.07
5020.43,3957.42
5017.45,3952.44
5014.98,3947.21
5013.02,3941.75
5011.61,3936.13
5010.76,3930.39
5010.48,3924.61
5010.48,3806.5
5010.76,3800.71
5011.61,3794.97
5013.02,3789.35
5014.98,3783.9
5017.45,3778.66
5020.43,3773.69
5023.88,3769.03
5027.78,3764.74
5032.07,3760.85
5036.73,3757.39
5041.7,3754.41
5046.94,3751.94
5052.39,3749.98
5058.01,3748.58
5063.75,3747.73
5069.54,3747.44
5719.14,3747.44
Z" /> 
<path style="fill:#840000; fill-opacity:1.0; 
stroke:#840000; stroke-width:0; stroke-opacity:1; 
stroke-linecap:round; stroke-linejoin:round;fill-rule:evenodd;"
d="M 5724.93,4247.73
5730.66,4248.58
5736.28,4249.98
5741.74,4251.94
5746.98,4254.41
5751.95,4257.39
5756.61,4260.85
5760.9,4264.74
5764.79,4269.03
5768.24,4273.69
5771.22,4278.66
5773.7,4283.9
5775.65,4289.35
5777.06,4294.97
5777.91,4300.71
5778.2,4306.5
5778.2,4424.61
5777.91,4430.39
5777.06,4436.13
5775.65,4441.75
5773.7,4447.21
5771.22,4452.44
5768.24,4457.42
5764.79,4462.07
5760.9,4466.36
5756.61,4470.26
5751.95,4473.71
5746.98,4476.69
5741.74,4479.17
5736.28,4481.12
5730.66,4482.53
5724.93,4483.38
5719.14,4483.66
5069.54,4483.66
5063.75,4483.38
5058.01,4482.53
5052.39,4481.12
5046.94,4479.17
5041.7,4476.69
5036.73,4473.71
5032.07,4470.26
5027.78,4466.36
5023.88,4462.07
5020.43,4457.42
5017.45,4452.44
5014.98,4447.21
5013.02,4441.75
5011.61,4436.13
5010.76,4430.39
5010.48,4424.61
5010.48,4306.5
5010.76,4300.71
5011.61,4294.97
5013.02,4289.35
5014.98,4283.9
5017.45,4278.66
5020.43,4273.69
5023.88,4269.03
5027.78,4264.74
5032.07,4260.85
5036.73,4257.39
5041.7,4254.41
5046.94,4251.94
5052.39,4249.98
5058.01,4248.58
5063.75,4247.73
5069.54,4247.44
5719.14,4247.44
Z" /> 
<path style="fill:#840000; fill-opacity:1.0; 
stroke:#840000; stroke-width:0; stroke-opacity:1; 
stroke-linecap:round; stroke-linejoin:round;fill-rule:evenodd;"
d="M 5724.93,4747.73
5730.66,4748.58
5736.28,4749.98
5741.74,4751.94
5746.98,4754.41
5751.95,4757.39
5756.61,4760.85
5760.9,4764.74
5764.79,4769.03
5768.24,4773.69
5771.22,4778.66
5773.7,4783.9
5775.65,4789.35
5777.06,4794.97
5777.91,4800.71
5778.2,4806.5
5778.2,4924.61
5777.91,4930.39
5777.06,4936.13
5775.65,4941.75
5773.7,4947.21
5771.22,4952.44
5768.24,4957.42
5764.79,4962.07
5760.9,4966.36
5756.61,4970.26
5751.95,4973.71
5746.98,4976.69
5741.74,4979.17
5736.28,4981.12
5730.66,4982.53
5724.93,4983.38
5719.14,4983.66
5069.54,4983.66
5063.75,4983.38
5058.01,4982.53
5052.39,4981.12
5046.94,4979.17
5041.7,4976.69
5036.73,4973.71
5032.07,4970.26
5027.78,4966.36
5023.88,4962.07
5020.43,4957.42
5017.45,4952.44
5014.98,4947.21
5013.02,4941.75
5011.61,4936.13
5010.76,4930.39
5010.48,4924.61
5010.48,4806.5
5010.76,4800.71
5011.61,4794.97
5013.02,4789.35
5014.98,4783.9
5017.45,4778.66
5020.43,4773.69
5023.88,4769.03
5027.78,4764.74
5032.07,4760.85
5036.73,4757.39
5041.7,4754.41
5046.94,4751.94
5052.39,4749.98
5058.01,4748.58
5063.75,4747.73
5069.54,4747.44
5719.14,4747.44
Z" /> 
<path style="fill:#840000; fill-opacity:1.0; 
stroke:#840000; stroke-width:0; stroke-opacity:1; 
stroke-linecap:round; stroke-linejoin:round;fill-rule:evenodd;"
d="M 5724.93,5247.73
5730.66,5248.58
5736.28,5249.98
5741.74,5251.94
5746.98,5254.41
5751.95,5257.39
5756.61,5260.85
5760.9,5264.74
5764.79,5269.03
5768.24,5273.69
5771.22,5278.66
5773.7,5283.9
5775.65,5289.35
5777.06,5294.97
5777.91,5300.71
5778.2,5306.5
5778.2,5424.61
5777.91,5430.39
5777.06,5436.13
5775.65,5441.75
5773.7,5447.21
5771.22,5452.44
5768.24,5457.42
5764.79,5462.07
5760.9,5466.36
5756.61,5470.26
5751.95,5473.71
5746.98,5476.69
5741.74,5479.17
5736.28,5481.12
5730.66,5482.53
5724.93,5483.38
5719.14,5483.66
5069.54,5483.66
5063.75,5483.38
5058.01,5482.53
5052.39,5481.12
5046.94,5479.17
5041.7,5476.69
5036.73,5473.71
5032.07,5470.26
5027.78,5466.36
5023.88,5462.07
5020.43,5457.42
5017.45,5452.44
5014.98,5447.21
5013.02,5441.75
5011.61,5436.13
5010.76,5430.39
5010.48,5424.61
5010.48,5306.5
5010.76,5300.71
5011.61,5294.97
5013.02,5289.35
5014.98,5283.9
5017.45,5278.66
5020.43,5273.69
5023.88,5269.03
5027.78,5264.74
5032.07,5260.85
5036.73,5257.39
5041.7,5254.41
5046.94,5251.94
5052.39,5249.98
5058.01,5248.58
5063.75,5247.73
5069.54,5247.44
5719.14,5247.44
Z" /> 
<path style="fill:#840000; fill-opacity:1.0; 
stroke:#840000; stroke-width:0; stroke-opacity:1; 
stroke-linecap:round; stroke-linejoin:round;fill-rule:evenodd;"
d="M 5724.93,5747.73
5730.66,5748.58
5736.28,5749.98
5741.74,5751.94
5746.98,5754.41
5751.95,5757.39
5756.61,5760.85
5760.9,5764.74
5764.79,5769.03
5768.24,5773.69
5771.22,5778.66
5773.7,5783.9
5775.65,5789.35
5777.06,5794.97
5777.91,5800.71
5778.2,5806.5
5778.2,5924.61
5777.91,5930.39
5777.06,5936.13
5775.65,5941.75
5773.7,5947.21
5771.22,5952.44
5768.24,5957.42
5764.79,5962.07
5760.9,5966.36
5756.61,5970.26
5751.95,5973.71
5746.98,5976.69
5741.74,5979.17
5736.28,5981.12
5730.66,5982.53
5724.93,5983.38
5719.14,5983.66
5069.54,5983.66
5063.75,5983.38
5058.01,5982.53
5052.39,5981.12
5046.94,5979.17
5041.7,5976.69
5036.73,5973.71
5032.07,5970.26
5027.78,5966.36
5023.88,5962.07
5020.43,5957.42
5017.45,5952.44
5014.98,5947.21
5013.02,5941.75
5011.61,5936.13
5010.76,5930.39
5010.48,5924.61
5010.48,5806.5
5010.76,5800.71
5011.61,5794.97
5013.02,5789.35
5014.98,5783.9
5017.45,5778.66
5020.43,5773.69
5023.88,5769.03
5027.78,5764.74
5032.07,5760.85
5036.73,5757.39
5041.7,5754.41
5046.94,5751.94
5052.39,5749.98
5058.01,5748.58
5063.75,5747.73
5069.54,5747.44
5719.14,5747.44
Z" /> 
<path style="fill:#840000; fill-opacity:1.0; 
stroke:#840000; stroke-width:0; stroke-opacity:1; 
stroke-linecap:round; stroke-linejoin:round;fill-rule:evenodd;"
d="M 5724.93,6247.73
5730.66,6248.58
5736.28,6249.98
5741.74,6251.94
5746.98,6254.41
5751.95,6257.39
5756.61,6260.85
5760.9,6264.74
5764.79,6269.03
5768.24,6273.69
5771.22,6278.66
5773.7,6283.9
5775.65,6289.35
5777.06,6294.97
5777.91,6300.71
5778.2,6306.5
5778.2,6424.61
5777.91,6430.39
5777.06,6436.13
5775.65,6441.75
5773.7,6447.21
5771.22,6452.44
5768.24,6457.42
5764.79,6462.07
5760.9,6466.36
5756.61,6470.26
5751.95,6473.71
5746.98,6476.69
5741.74,6479.17
5736.28,6481.12
5730.66,6482.53
5724.93,6483.38
5719.14,6483.66
5069.54,6483.66
5063.75,6483.38
5058.01,6482.53
5052.39,6481.12
5046.94,6479.17
5041.7,6476.69
5036.73,6473.71
5032.07,6470.26
5027.78,6466.36
5023.88,6462.07
5020.43,6457.42
5017.45,6452.44
5014.98,6447.21
5013.02,6441.75
5011.61,6436.13
5010.76,6430.39
5010.48,6424.61
5010.48,6306.5
5010.76,6300.71
5011.61,6294.97
5013.02,6289.35
5014.98,6283.9
5017.45,6278.66
5020.43,6273.69
5023.88,6269.03
5027.78,6264.74
5032.07,6260.85
5036.73,6257.39
5041.7,6254.41
5046.94,6251.94
5052.39,6249.98
5058.01,6248.58
5063.75,6247.73
5069.54,6247.44
5719.14,6247.44
Z" /> 
<path style="fill:#840000; fill-opacity:1.0; 
stroke:#840000; stroke-width:0; stroke-opacity:1; 
stroke-linecap:round; stroke-linejoin:round;fill-rule:evenodd;"
d="M 3776.11,6247.73
3781.84,6248.58
3787.47,6249.98
3792.92,6251.94
3798.16,6254.41
3803.13,6257.39
3807.79,6260.85
3812.08,6264.74
3815.97,6269.03
3819.42,6273.69
3822.4,6278.66
3824.88,6283.9
3826.83,6289.35
3828.24,6294.97
3829.09,6300.71
3829.38,6306.5
3829.38,6424.61
3829.09,6430.39
3828.24,6436.13
3826.83,6441.75
3824.88,6447.21
3822.4,6452.44
3819.42,6457.42
3815.97,6462.07
3812.08,6466.36
3807.79,6470.26
3803.13,6473.71
3798.16,6476.69
3792.92,6479.17
3787.47,6481.12
3781.84,6482.53
3776.11,6483.38
3770.32,6483.66
3120.72,6483.66
3114.93,6483.38
3109.19,6482.53
3103.57,6481.12
3098.12,6479.17
3092.88,6476.69
3087.91,6473.71
3083.25,6470.26
3078.96,6466.36
3075.07,6462.07
3071.61,6457.42
3068.63,6452.44
3066.16,6447.21
3064.2,6441.75
3062.8,6436.13
3061.95,6430.39
3061.66,6424.61
3061.66,6306.5
3061.95,6300.71
3062.8,6294.97
3064.2,6289.35
3066.16,6283.9
3068.63,6278.66
3071.61,6273.69
3075.07,6269.03
3078.96,6264.74
3083.25,6260.85
3087.91,6257.39
3092.88,6254.41
3098.12,6251.94
3103.57,6249.98
3109.19,6248.58
3114.93,6247.73
3120.72,6247.44
3770.32,6247.44
Z" /> 
<path style="fill:#840000; fill-opacity:1.0; 
stroke:#840000; stroke-width:0; stroke-opacity:1; 
stroke-linecap:round; stroke-linejoin:round;fill-rule:evenodd;"
d="M 3776.11,5747.73
3781.84,5748.58
3787.47,5749.98
3792.92,5751.94
3798.16,5754.41
3803.13,5757.39
3807.79,5760.85
3812.08,5764.74
3815.97,5769.03
3819.42,5773.69
3822.4,5778.66
3824.88,5783.9
3826.83,5789.35
3828.24,5794.97
3829.09,5800.71
3829.38,5806.5
3829.38,5924.61
3829.09,5930.39
3828.24,5936.13
3826.83,5941.75
3824.88,5947.21
3822.4,5952.44
3819.42,5957.42
3815.97,5962.07
3812.08,5966.36
3807.79,5970.26
3803.13,5973.71
3798.16,5976.69
3792.92,5979.17
3787.47,5981.12
3781.84,5982.53
3776.11,5983.38
3770.32,5983.66
3120.72,5983.66
3114.93,5983.38
3109.19,5982.53
3103.57,5981.12
3098.12,5979.17
3092.88,5976.69
3087.91,5973.71
3083.25,5970.26
3078.96,5966.36
3075.07,5962.07
3071.61,5957.42
3068.63,5952.44
3066.16,5947.21
3064.2,5941.75
3062.8,5936.13
3061.95,5930.39
3061.66,5924.61
3061.66,5806.5
3061.95,5800.71
3062.8,5794.97
3064.2,5789.35
3066.16,5783.9
3068.63,5778.66
3071.61,5773.69
3075.07,5769.03
3078.96,5764.74
3083.25,5760.85
3087.91,5757.39
3092.88,5754.41
3098.12,5751.94
3103.57,5749.98
3109.19,5748.58
3114.93,5747.73
3120.72,5747.44
3770.32,5747.44
Z" /> 
<path style="fill:#840000; fill-opacity:1.0; 
stroke:#840000; stroke-width:0; stroke-opacity:1; 
stroke-linecap:round; stroke-linejoin:round;fill-rule:evenodd;"
d="M 3776.11,5247.73
3781.84,5248.58
3787.47,5249.98
3792.92,5251.94
3798.16,5254.41
3803.13,5257.39
3807.79,5260.85
3812.08,5264.74
3815.97,5269.03
3819.42,5273.69
3822.4,5278.66
3824.88,5283.9
3826.83,5289.35
3828.24,5294.97
3829.09,5300.71
3829.38,5306.5
3829.38,5424.61
3829.09,5430.39
3828.24,5436.13
3826.83,5441.75
3824.88,5447.21
3822.4,5452.44
3819.42,5457.42
3815.97,5462.07
3812.08,5466.36
3807.79,5470.26
3803.13,5473.71
3798.16,5476.69
3792.92,5479.17
3787.47,5481.12
3781.84,5482.53
3776.11,5483.38
3770.32,5483.66
3120.72,5483.66
3114.93,5483.38
3109.19,5482.53
3103.57,5481.12
3098.12,5479.17
3092.88,5476.69
3087.91,5473.71
3083.25,5470.26
3078.96,5466.36
3075.07,5462.07
3071.61,5457.42
3068.63,5452.44
3066.16,5447.21
3064.2,5441.75
3062.8,5436.13
3061.95,5430.39
3061.66,5424.61
3061.66,5306.5
3061.95,5300.71
3062.8,5294.97
3064.2,5289.35
3066.16,5283.9
3068.63,5278.66
3071.61,5273.69
3075.07,5269.03
3078.96,5264.74
3083.25,5260.85
3087.91,5257.39
3092.88,5254.41
3098.12,5251.94
3103.57,5249.98
3109.19,5248.58
3114.93,5247.73
3120.72,5247.44
3770.32,5247.44
Z" /> 
<path style="fill:#840000; fill-opacity:1.0; 
stroke:#840000; stroke-width:0; stroke-opacity:1; 
stroke-linecap:round; stroke-linejoin:round;fill-rule:evenodd;"
d="M 3776.11,4747.73
3781.84,4748.58
3787.47,4749.98
3792.92,4751.94
3798.16,4754.41
3803.13,4757.39
3807.79,4760.85
3812.08,4764.74
3815.97,4769.03
3819.42,4773.69
3822.4,4778.66
3824.88,4783.9
3826.83,4789.35
3828.24,4794.97
3829.09,4800.71
3829.38,4806.5
3829.38,4924.61
3829.09,4930.39
3828.24,4936.13
3826.83,4941.75
3824.88,4947.21
3822.4,4952.44
3819.42,4957.42
3815.97,4962.07
3812.08,4966.36
3807.79,4970.26
3803.13,4973.71
3798.16,4976.69
3792.92,4979.17
3787.47,4981.12
3781.84,4982.53
3776.11,4983.38
3770.32,4983.66
3120.72,4983.66
3114.93,4983.38
3109.19,4982.53
3103.57,4981.12
3098.12,4979.17
3092.88,4976.69
3087.91,4973.71
3083.25,4970.26
3078.96,4966.36
3075.07,4962.07
3071.61,4957.42
3068.63,4952.44
3066.16,4947.21
3064.2,4941.75
3062.8,4936.13
3061.95,4930.39
3061.66,4924.61
3061.66,4806.5
3061.95,4800.71
3062.8,4794.97
3064.2,4789.35
3066.16,4783.9
3068.63,4778.66
3071.61,4773.69
3075.07,4769.03
3078.96,4764.74
3083.25,4760.85
3087.91,4757.39
3092.88,4754.41
3098.12,4751.94
3103.57,4749.98
3109.19,4748.58
3114.93,4747.73
3120.72,4747.44
3770.32,4747.44
Z" /> 
<path style="fill:#840000; fill-opacity:1.0; 
stroke:#840000; stroke-width:0; stroke-opacity:1; 
stroke-linecap:round; stroke-linejoin:round;fill-rule:evenodd;"
d="M 3776.11,4247.73
3781.84,4248.58
3787.47,4249.98
3792.92,4251.94
3798.16,4254.41
3803.13,4257.39
3807.79,4260.85
3812.08,4264.74
3815.97,4269.03
3819.42,4273.69
3822.4,4278.66
3824.88,4283.9
3826.83,4289.35
3828.24,4294.97
3829.09,4300.71
3829.38,4306.5
3829.38,4424.61
3829.09,4430.39
3828.24,4436.13
3826.83,4441.75
3824.88,4447.21
3822.4,4452.44
3819.42,4457.42
3815.97,4462.07
3812.08,4466.36
3807.79,4470.26
3803.13,4473.71
3798.16,4476.69
3792.92,4479.17
3787.47,4481.12
3781.84,4482.53
3776.11,4483.38
3770.32,4483.66
3120.72,4483.66
3114.93,4483.38
3109.19,4482.53
3103.57,4481.12
3098.12,4479.17
3092.88,4476.69
3087.91,4473.71
3083.25,4470.26
3078.96,4466.36
3075.07,4462.07
3071.61,4457.42
3068.63,4452.44
3066.16,4447.21
3064.2,4441.75
3062.8,4436.13
3061.95,4430.39
3061.66,4424.61
3061.66,4306.5
3061.95,4300.71
3062.8,4294.97
3064.2,4289.35
3066.16,4283.9
3068.63,4278.66
3071.61,4273.69
3075.07,4269.03
3078.96,4264.74
3083.25,4260.85
3087.91,4257.39
3092.88,4254.41
3098.12,4251.94
3103.57,4249.98
3109.19,4248.58
3114.93,4247.73
3120.72,4247.44
3770.32,4247.44
Z" /> 
<path style="fill:#840000; fill-opacity:1.0; 
stroke:#840000; stroke-width:0; stroke-opacity:1; 
stroke-linecap:round; stroke-linejoin:round;fill-rule:evenodd;"
d="M 3776.11,3747.73
3781.84,3748.58
3787.47,3749.98
3792.92,3751.94
3798.16,3754.41
3803.13,3757.39
3807.79,3760.85
3812.08,3764.74
3815.97,3769.03
3819.42,3773.69
3822.4,3778.66
3824.88,3783.9
3826.83,3789.35
3828.24,3794.97
3829.09,3800.71
3829.38,3806.5
3829.38,3924.61
3829.09,3930.39
3828.24,3936.13
3826.83,3941.75
3824.88,3947.21
3822.4,3952.44
3819.42,3957.42
3815.97,3962.07
3812.08,3966.36
3807.79,3970.26
3803.13,3973.71
3798.16,3976.69
3792.92,3979.17
3787.47,3981.12
3781.84,3982.53
3776.11,3983.38
3770.32,3983.66
3120.72,3983.66
3114.93,3983.38
3109.19,3982.53
3103.57,3981.12
3098.12,3979.17
3092.88,3976.69
3087.91,3973.71
3083.25,3970.26
3078.96,3966.36
3075.07,3962.07
3071.61,3957.42
3068.63,3952.44
3066.16,3947.21
3064.2,3941.75
3062.8,3936.13
3061.95,3930.39
3061.66,3924.61
3061.66,3806.5
3061.95,3800.71
3062.8,3794.97
3064.2,3789.35
3066.16,3783.9
3068.63,3778.66
3071.61,3773.69
3075.07,3769.03
3078.96,3764.74
3083.25,3760.85
3087.91,3757.39
3092.88,3754.41
3098.12,3751.94
3103.57,3749.98
3109.19,3748.58
3114.93,3747.73
3120.72,3747.44
3770.32,3747.44
Z" /> 
<path style="fill:#840000; fill-opacity:1.0; 
stroke:#840000; stroke-width:0; stroke-opacity:1; 
stroke-linecap:round; stroke-linejoin:round;fill-rule:evenodd;"
d="M 3776.11,3247.73
3781.84,3248.58
3787.47,3249.98
3792.92,3251.94
3798.16,3254.41
3803.13,3257.39
3807.79,3260.85
3812.08,3264.74
3815.97,3269.03
3819.42,3273.69
3822.4,3278.66
3824.88,3283.9
3826.83,3289.35
3828.24,3294.97
3829.09,3300.71
3829.38,3306.5
3829.38,3424.61
3829.09,3430.39
3828.24,3436.13
3826.83,3441.75
3824.88,3447.21
3822.4,3452.44
3819.42,3457.42
3815.97,3462.07
3812.08,3466.36
3807.79,3470.26
3803.13,3473.71
3798.16,3476.69
3792.92,3479.17
3787.47,3481.12
3781.84,3482.53
3776.11,3483.38
3770.32,3483.66
3120.72,3483.66
3114.93,3483.38
3109.19,3482.53
3103.57,3481.12
3098.12,3479.17
3092.88,3476.69
3087.91,3473.71
3083.25,3470.26
3078.96,3466.36
3075.07,3462.07
3071.61,3457.42
3068.63,3452.44
3066.16,3447.21
3064.2,3441.75
3062.8,3436.13
3061.95,3430.39
3061.66,3424.61
3061.66,3306.5
3061.95,3300.71
3062.8,3294.97
3064.2,3289.35
3066.16,3283.9
3068.63,3278.66
3071.61,3273.69
3075.07,3269.03
3078.96,3264.74
3083.25,3260.85
3087.91,3257.39
3092.88,3254.41
3098.12,3251.94
3103.57,3249.98
3109.19,3248.58
3114.93,3247.73
3120.72,3247.44
3770.32,3247.44
Z" /> 
<path style="fill:#840000; fill-opacity:1.0; 
stroke:#840000; stroke-width:0; stroke-opacity:1; 
stroke-linecap:round; stroke-linejoin:round;fill-rule:evenodd;"
d="M 3776.11,2747.73
3781.84,2748.58
3787.47,2749.98
3792.92,2751.94
3798.16,2754.41
3803.13,2757.39
3807.79,2760.85
3812.08,2764.74
3815.97,2769.03
3819.42,2773.69
3822.4,2778.66
3824.88,2783.9
3826.83,2789.35
3828.24,2794.97
3829.09,2800.71
3829.38,2806.5
3829.38,2924.61
3829.09,2930.39
3828.24,2936.13
3826.83,2941.75
3824.88,2947.21
3822.4,2952.44
3819.42,2957.42
3815.97,2962.07
3812.08,2966.36
3807.79,2970.26
3803.13,2973.71
3798.16,2976.69
3792.92,2979.17
3787.47,2981.12
3781.84,2982.53
3776.11,2983.38
3770.32,2983.66
3120.72,2983.66
3114.93,2983.38
3109.19,2982.53
3103.57,2981.12
3098.12,2979.17
3092.88,2976.69
3087.91,2973.71
3083.25,2970.26
3078.96,2966.36
3075.07,2962.07
3071.61,2957.42
3068.63,2952.44
3066.16,2947.21
3064.2,2941.75
3062.8,2936.13
3061.95,2930.39
3061.66,2924.61
3061.66,2806.5
3061.95,2800.71
3062.8,2794.97
3064.2,2789.35
3066.16,2783.9
3068.63,2778.66
3071.61,2773.69
3075.07,2769.03
3078.96,2764.74
3083.25,2760.85
3087.91,2757.39
3092.88,2754.41
3098.12,2751.94
3103.57,2749.98
3109.19,2748.58
3114.93,2747.73
3120.72,2747.44
3770.32,2747.44
Z" /> 
</g>
<g >
</g>
<g style="fill:#848400; fill-opacity:1.0; 
stroke:#848400; stroke-width:0; stroke-opacity:1; 
stroke-linecap:round; stroke-linejoin:round;">
<circle cx="6819.93" cy="8215.55" r="334.646" /> 
<circle cx="6819.93" cy="7215.55" r="334.646" /> 
<circle cx="6819.93" cy="6215.55" r="334.646" /> 
<circle cx="6819.93" cy="5215.55" r="334.646" /> 
<circle cx="6819.93" cy="4215.55" r="334.646" /> 
<circle cx="6819.93" cy="3215.55" r="334.646" /> 
<circle cx="6819.93" cy="2215.55" r="334.646" /> 
<path style="fill:#848400; fill-opacity:1.0; 
stroke:#848400; stroke-width:0; stroke-opacity:1; 
stroke-linecap:round; stroke-linejoin:round;fill-rule:evenodd;"
d="M 6485.28,1550.2
6485.28,880.906
7154.57,880.906
7154.57,1550.2
Z" /> 
</g>
<g >
</g>
<g style="fill:#848400; fill-opacity:1.0; 
stroke:#848400; stroke-width:0; stroke-opacity:1; 
stroke-linecap:round; stroke-linejoin:round;">
<circle cx="1819.93" cy="8215.55" r="334.646" /> 
<circle cx="1819.93" cy="7215.55" r="334.646" /> 
<circle cx="1819.93" cy="6215.55" r="334.646" /> 
<circle cx="1819.93" cy="5215.55" r="334.646" /> 
<circle cx="1819.93" cy="4215.55" r="334.646" /> 
<circle cx="1819.93" cy="3215.55" r="334.646" /> 
<circle cx="1819.93" cy="2215.55" r="334.646" /> 
<path style="fill:#848400; fill-opacity:1.0; 
stroke:#848400; stroke-width:0; stroke-opacity:1; 
stroke-linecap:round; stroke-linejoin:round;fill-rule:evenodd;"
d="M 1485.28,1550.2
1485.28,880.906
2154.57,880.906
2154.57,1550.2
Z" /> 
</g>
<g >
</g>
<g >
</g>
<g >
</g>
</g>
<g style="fill:#000000; fill-opacity:1.0; 
stroke:#000000; stroke-width:0; stroke-opacity:1; 
stroke-linecap:round; stroke-linejoin:round;">
<g >
</g>
<g style="fill:#840000; fill-opacity:1.0; 
stroke:#840000; stroke-width:0; stroke-opacity:1; 
stroke-linecap:round; stroke-linejoin:round;">
<path style="fill:#840000; fill-opacity:1.0; 
stroke:#840000; stroke-width:0; stroke-opacity:1; 
stroke-linecap:round; stroke-linejoin:round;fill-rule:evenodd;"
d="M 5724.93,2747.73
5730.66,2748.58
5736.28,2749.98
5741.74,2751.94
5746.98,2754.41
5751.95,2757.39
5756.61,2760.85
5760.9,2764.74
5764.79,2769.03
5768.24,2773.69
5771.22,2778.66
5773.7,2783.9
5775.65,2789.35
5777.06,2794.97
5777.91,2800.71
5778.2,2806.5
5778.2,2924.61
5777.91,2930.39
5777.06,2936.13
5775.65,2941.75
5773.7,2947.21
5771.22,2952.44
5768.24,2957.42
5764.79,2962.07
5760.9,2966.36
5756.61,2970.26
5751.95,2973.71
5746.98,2976.69
5741.74,2979.17
5736.28,2981.12
5730.66,2982.53
5724.93,2983.38
5719.14,2983.66
5069.54,2983.66
5063.75,2983.38
5058.01,2982.53
5052.39,2981.12
5046.94,2979.17
5041.7,2976.69
5036.73,2973.71
5032.07,2970.26
5027.78,2966.36
5023.88,2962.07
5020.43,2957.42
5017.45,2952.44
5014.98,2947.21
5013.02,2941.75
5011.61,2936.13
5010.76,2930.39
5010.48,2924.61
5010.48,2806.5
5010.76,2800.71
5011.61,2794.97
5013.02,2789.35
5014.98,2783.9
5017.45,2778.66
5020.43,2773.69
5023.88,2769.03
5027.78,2764.74
5032.07,2760.85
5036.73,2757.39
5041.7,2754.41
5046.94,2751.94
5052.39,2749.98
5058.01,2748.58
5063.75,2747.73
5069.54,2747.44
5719.14,2747.44
Z" /> 
<path style="fill:#840000; fill-opacity:1.0; 
stroke:#840000; stroke-width:0; stroke-opacity:1; 
stroke-linecap:round; stroke-linejoin:round;fill-rule:evenodd;"
d="M 5724.93,3247.73
5730.66,3248.58
5736.28,3249.98
5741.74,3251.94
5746.98,3254.41
5751.95,3257.39
5756.61,3260.85
5760.9,3264.74
5764.79,3269.03
5768.24,3273.69
5771.22,3278.66
5773.7,3283.9
5775.65,3289.35
5777.06,3294.97
5777.91,3300.71
5778.2,3306.5
5778.2,3424.61
5777.91,3430.39
5777.06,3436.13
5775.65,3441.75
5773.7,3447.21
5771.22,3452.44
5768.24,3457.42
5764.79,3462.07
5760.9,3466.36
5756.61,3470.26
5751.95,3473.71
5746.98,3476.69
5741.74,3479.17
5736.28,3481.12
5730.66,3482.53
5724.93,3483.38
5719.14,3483.66
5069.54,3483.66
5063.75,3483.38
5058.01,3482.53
5052.39,3481.12
5046.94,3479.17
5041.7,3476.69
5036.73,3473.71
5032.07,3470.26
5027.78,3466.36
5023.88,3462.07
5020.43,3457.42
5017.45,3452.44
5014.98,3447.21
5013.02,3441.75
5011.61,3436.13
5010.76,3430.39
5010.48,3424.61
5010.48,3306.5
5010.76,3300.71
5011.61,3294.97
5013.02,3289.35
5014.98,3283.9
5017.45,3278.66
5020.43,3273.69
5023.88,3269.03
5027.78,3264.74
5032.07,3260.85
5036.73,3257.39
5041.7,3254.41
5046.94,3251.94
5052.39,3249.98
5058.01,3248.58
5063.75,3247.73
5069.54,3247.44
5719.14,3247.44
Z" /> 
<path style="fill:#840000; fill-opacity:1.0; 
stroke:#840000; stroke-width:0; stroke-opacity:1; 
stroke-linecap:round; stroke-linejoin:round;fill-rule:evenodd;"
d="M 5724.93,3747.73
5730.66,3748.58
5736.28,3749.98
5741.74,3751.94
5746.98,3754.41
5751.95,3757.39
5756.61,3760.85
5760.9,3764.74
5764.79,3769.03
5768.24,3773.69
5771.22,3778.66
5773.7,3783.9
5775.65,3789.35
5777.06,3794.97
5777.91,3800.71
5778.2,3806.5
5778.2,3924.61
5777.91,3930.39
5777.06,3936.13
5775.65,3941.75
5773.7,3947.21
5771.22,3952.44
5768.24,3957.42
5764.79,3962.07
5760.9,3966.36
5756.61,3970.26
5751.95,3973.71
5746.98,3976.69
5741.74,3979.17
5736.28,3981.12
5730.66,3982.53
5724.93,3983.38
5719.14,3983.66
5069.54,3983.66
5063.75,3983.38
5058.01,3982.53
5052.39,3981.12
5046.94,3979.17
5041.7,3976.69
5036.73,3973.71
5032.07,3970.26
5027.78,3966.36
5023.88,3962.07
5020.43,3957.42
5017.45,3952.44
5014.98,3947.21
5013.02,3941.75
5011.61,3936.13
5010.76,3930.39
5010.48,3924.61
5010.48,3806.5
5010.76,3800.71
5011.61,3794.97
5013.02,3789.35
5014.98,3783.9
5017.45,3778.66
5020.43,3773.69
5023.88,3769.03
5027.78,3764.74
5032.07,3760.85
5036.73,3757.39
5041.7,3754.41
5046.94,3751.94
5052.39,3749.98
5058.01,3748.58
5063.75,3747.73
5069.54,3747.44
5719.14,3747.44
Z" /> 
<path style="fill:#840000; fill-opacity:1.0; 
stroke:#840000; stroke-width:0; stroke-opacity:1; 
stroke-linecap:round; stroke-linejoin:round;fill-rule:evenodd;"
d="M 5724.93,4247.73
5730.66,4248.58
5736.28,4249.98
5741.74,4251.94
5746.98,4254.41
5751.95,4257.39
5756.61,4260.85
5760.9,4264.74
5764.79,4269.03
5768.24,4273.69
5771.22,4278.66
5773.7,4283.9
5775.65,4289.35
5777.06,4294.97
5777.91,4300.71
5778.2,4306.5
5778.2,4424.61
5777.91,4430.39
5777.06,4436.13
5775.65,4441.75
5773.7,4447.21
5771.22,4452.44
5768.24,4457.42
5764.79,4462.07
5760.9,4466.36
5756.61,4470.26
5751.95,4473.71
5746.98,4476.69
5741.74,4479.17
5736.28,4481.12
5730.66,4482.53
5724.93,4483.38
5719.14,4483.66
5069.54,4483.66
5063.75,4483.38
5058.01,4482.53
5052.39,4481.12
5046.94,4479.17
5041.7,4476.69
5036.73,4473.71
5032.07,4470.26
5027.78,4466.36
5023.88,4462.07
5020.43,4457.42
5017.45,4452.44
5014.98,4447.21
5013.02,4441.75
5011.61,4436.13
5010.76,4430.39
5010.48,4424.61
5010.48,4306.5
5010.76,4300.71
5011.61,4294.97
5013.02,4289.35
5014.98,4283.9
5017.45,4278.66
5020.43,4273.69
5023.88,4269.03
5027.78,4264.74
5032.07,4260.85
5036.73,4257.39
5041.7,4254.41
5046.94,4251.94
5052.39,4249.98
5058.01,4248.58
5063.75,4247.73
5069.54,4247.44
5719.14,4247.44
Z" /> 
<path style="fill:#840000; fill-opacity:1.0; 
stroke:#840000; stroke-width:0; stroke-opacity:1; 
stroke-linecap:round; stroke-linejoin:round;fill-rule:evenodd;"
d="M 5724.93,4747.73
5730.66,4748.58
5736.28,4749.98
5741.74,4751.94
5746.98,4754.41
5751.95,4757.39
5756.61,4760.85
5760.9,4764.74
5764.79,4769.03
5768.24,4773.69
5771.22,4778.66
5773.7,4783.9
5775.65,4789.35
5777.06,4794.97
5777.91,4800.71
5778.2,4806.5
5778.2,4924.61
5777.91,4930.39
5777.06,4936.13
5775.65,4941.75
5773.7,4947.21
5771.22,4952.44
5768.24,4957.42
5764.79,4962.07
5760.9,4966.36
5756.61,4970.26
5751.95,4973.71
5746.98,4976.69
5741.74,4979.17
5736.28,4981.12
5730.66,4982.53
5724.93,4983.38
5719.14,4983.66
5069.54,4983.66
5063.75,4983.38
5058.01,4982.53
5052.39,4981.12
5046.94,4979.17
5041.7,4976.69
5036.73,4973.71
5032.07,4970.26
5027.78,4966.36
5023.88,4962.07
5020.43,4957.42
5017.45,4952.44
5014.98,4947.21
5013.02,4941.75
5011.61,4936.13
5010.76,4930.39
5010.48,4924.61
5010.48,4806.5
5010.76,4800.71
5011.61,4794.97
5013.02,4789.35
5014.98,4783.9
5017.45,4778.66
5020.43,4773.69
5023.88,4769.03
5027.78,4764.74
5032.07,4760.85
5036.73,4757.39
5041.7,4754.41
5046.94,4751.94
5052.39,4749.98
5058.01,4748.58
5063.75,4747.73
5069.54,4747.44
5719.14,4747.44
Z" /> 
<path style="fill:#840000; fill-opacity:1.0; 
stroke:#840000; stroke-width:0; stroke-opacity:1; 
stroke-linecap:round; stroke-linejoin:round;fill-rule:evenodd;"
d="M 5724.93,5247.73
5730.66,5248.58
5736.28,5249.98
5741.74,5251.94
5746.98,5254.41
5751.95,5257.39
5756.61,5260.85
5760.9,5264.74
5764.79,5269.03
5768.24,5273.69
5771.22,5278.66
5773.7,5283.9
5775.65,5289.35
5777.06,5294.97
5777.91,5300.71
5778.2,5306.5
5778.2,5424.61
5777.91,5430.39
5777.06,5436.13
5775.65,5441.75
5773.7,5447.21
5771.22,5452.44
5768.24,5457.42
5764.79,5462.07
5760.9,5466.36
5756.61,5470.26
5751.95,5473.71
5746.98,5476.69
5741.74,5479.17
5736.28,5481.12
5730.66,5482.53
5724.93,5483.38
5719.14,5483.66
5069.54,5483.66
5063.75,5483.38
5058.01,5482.53
5052.39,5481.12
5046.94,5479.17
5041.7,5476.69
5036.73,5473.71
5032.07,5470.26
5027.78,5466.36
5023.88,5462.07
5020.43,5457.42
5017.45,5452.44
5014.98,5447.21
5013.02,5441.75
5011.61,5436.13
5010.76,5430.39
5010.48,5424.61
5010.48,5306.5
5010.76,5300.71
5011.61,5294.97
5013.02,5289.35
5014.98,5283.9
5017.45,5278.66
5020.43,5273.69
5023.88,5269.03
5027.78,5264.74
5032.07,5260.85
5036.73,5257.39
5041.7,5254.41
5046.94,5251.94
5052.39,5249.98
5058.01,5248.58
5063.75,5247.73
5069.54,5247.44
5719.14,5247.44
Z" /> 
<path style="fill:#840000; fill-opacity:1.0; 
stroke:#840000; stroke-width:0; stroke-opacity:1; 
stroke-linecap:round; stroke-linejoin:round;fill-rule:evenodd;"
d="M 5724.93,5747.73
5730.66,5748.58
5736.28,5749.98
5741.74,5751.94
5746.98,5754.41
5751.95,5757.39
5756.61,5760.85
5760.9,5764.74
5764.79,5769.03
5768.24,5773.69
5771.22,5778.66
5773.7,5783.9
5775.65,5789.35
5777.06,5794.97
5777.91,5800.71
5778.2,5806.5
5778.2,5924.61
5777.91,5930.39
5777.06,5936.13
5775.65,5941.75
5773.7,5947.21
5771.22,5952.44
5768.24,5957.42
5764.79,5962.07
5760.9,5966.36
5756.61,5970.26
5751.95,5973.71
5746.98,5976.69
5741.74,5979.17
5736.28,5981.12
5730.66,5982.53
5724.93,5983.38
5719.14,5983.66
5069.54,5983.66
5063.75,5983.38
5058.01,5982.53
5052.39,5981.12
5046.94,5979.17
5041.7,5976.69
5036.73,5973.71
5032.07,5970.26
5027.78,5966.36
5023.88,5962.07
5020.43,5957.42
5017.45,5952.44
5014.98,5947.21
5013.02,5941.75
5011.61,5936.13
5010.76,5930.39
5010.48,5924.61
5010.48,5806.5
5010.76,5800.71
5011.61,5794.97
5013.02,5789.35
5014.98,5783.9
5017.45,5778.66
5020.43,5773.69
5023.88,5769.03
5027.78,5764.74
5032.07,5760.85
5036.73,5757.39
5041.7,5754.41
5046.94,5751.94
5052.39,5749.98
5058.01,5748.58
5063.75,5747.73
5069.54,5747.44
5719.14,5747.44
Z" /> 
<path style="fill:#840000; fill-opacity:1.0; 
stroke:#840000; stroke-width:0; stroke-opacity:1; 
stroke-linecap:round; stroke-linejoin:round;fill-rule:evenodd;"
d="M 5724.93,6247.73
5730.66,6248.58
5736.28,6249.98
5741.74,6251.94
5746.98,6254.41
5751.95,6257.39
5756.61,6260.85
5760.9,6264.74
5764.79,6269.03
5768.24,6273.69
5771.22,6278.66
5773.7,6283.9
5775.65,6289.35
5777.06,6294.97
5777.91,6300.71
5778.2,6306.5
5778.2,6424.61
5777.91,6430.39
5777.06,6436.13
5775.65,6441.75
5773.7,6447.21
5771.22,6452.44
5768.24,6457.42
5764.79,6462.07
5760.9,6466.36
5756.61,6470.26
5751.95,6473.71
5746.98,6476.69
5741.74,6479.17
5736.28,6481.12
5730.66,6482.53
5724.93,6483.38
5719.14,6483.66
5069.54,6483.66
5063.75,6483.38
5058.01,6482.53
5052.39,6481.12
5046.94,6479.17
5041.7,6476.69
5036.73,6473.71
5032.07,6470.26
5027.78,6466.36
5023.88,6462.07
5020.43,6457.42
5017.45,6452.44
5014.98,6447.21
5013.02,6441.75
5011.61,6436.13
5010.76,6430.39
5010.48,6424.61
5010.48,6306.5
5010.76,6300.71
5011.61,6294.97
5013.02,6289.35
5014.98,6283.9
5017.45,6278.66
5020.43,6273.69
5023.88,6269.03
5027.78,6264.74
5032.07,6260.85
5036.73,6257.39
5041.7,6254.41
5046.94,6251.94
5052.39,6249.98
5058.01,6248.58
5063.75,6247.73
5069.54,6247.44
5719.14,6247.44
Z" /> 
<path style="fill:#840000; fill-opacity:1.0; 
stroke:#840000; stroke-width:0; stroke-opacity:1; 
stroke-linecap:round; stroke-linejoin:round;fill-rule:evenodd;"
d="M 3776.11,6247.73
3781.84,6248.58
3787.47,6249.98
3792.92,6251.94
3798.16,6254.41
3803.13,6257.39
3807.79,6260.85
3812.08,6264.74
3815.97,6269.03
3819.42,6273.69
3822.4,6278.66
3824.88,6283.9
3826.83,6289.35
3828.24,6294.97
3829.09,6300.71
3829.38,6306.5
3829.38,6424.61
3829.09,6430.39
3828.24,6436.13
3826.83,6441.75
3824.88,6447.21
3822.4,6452.44
3819.42,6457.42
3815.97,6462.07
3812.08,6466.36
3807.79,6470.26
3803.13,6473.71
3798.16,6476.69
3792.92,6479.17
3787.47,6481.12
3781.84,6482.53
3776.11,6483.38
3770.32,6483.66
3120.72,6483.66
3114.93,6483.38
3109.19,6482.53
3103.57,6481.12
3098.12,6479.17
3092.88,6476.69
3087.91,6473.71
3083.25,6470.26
3078.96,6466.36
3075.07,6462.07
3071.61,6457.42
3068.63,6452.44
3066.16,6447.21
3064.2,6441.75
3062.8,6436.13
3061.95,6430.39
3061.66,6424.61
3061.66,6306.5
3061.95,6300.71
3062.8,6294.97
3064.2,6289.35
3066.16,6283.9
3068.63,6278.66
3071.61,6273.69
3075.07,6269.03
3078.96,6264.74
3083.25,6260.85
3087.91,6257.39
3092.88,6254.41
3098.12,6251.94
3103.57,6249.98
3109.19,6248.58
3114.93,6247.73
3120.72,6247.44
3770.32,6247.44
Z" /> 
<path style="fill:#840000; fill-opacity:1.0; 
stroke:#840000; stroke-width:0; stroke-opacity:1; 
stroke-linecap:round; stroke-linejoin:round;fill-rule:evenodd;"
d="M 3776.11,5747.73
3781.84,5748.58
3787.47,5749.98
3792.92,5751.94
3798.16,5754.41
3803.13,5757.39
3807.79,5760.85
3812.08,5764.74
3815.97,5769.03
3819.42,5773.69
3822.4,5778.66
3824.88,5783.9
3826.83,5789.35
3828.24,5794.97
3829.09,5800.71
3829.38,5806.5
3829.38,5924.61
3829.09,5930.39
3828.24,5936.13
3826.83,5941.75
3824.88,5947.21
3822.4,5952.44
3819.42,5957.42
3815.97,5962.07
3812.08,5966.36
3807.79,5970.26
3803.13,5973.71
3798.16,5976.69
3792.92,5979.17
3787.47,5981.12
3781.84,5982.53
3776.11,5983.38
3770.32,5983.66
3120.72,5983.66
3114.93,5983.38
3109.19,5982.53
3103.57,5981.12
3098.12,5979.17
3092.88,5976.69
3087.91,5973.71
3083.25,5970.26
3078.96,5966.36
3075.07,5962.07
3071.61,5957.42
3068.63,5952.44
3066.16,5947.21
3064.2,5941.75
3062.8,5936.13
3061.95,5930.39
3061.66,5924.61
3061.66,5806.5
3061.95,5800.71
3062.8,5794.97
3064.2,5789.35
3066.16,5783.9
3068.63,5778.66
3071.61,5773.69
3075.07,5769.03
3078.96,5764.74
3083.25,5760.85
3087.91,5757.39
3092.88,5754.41
3098.12,5751.94
3103.57,5749.98
3109.19,5748.58
3114.93,5747.73
3120.72,5747.44
3770.32,5747.44
Z" /> 
<path style="fill:#840000; fill-opacity:1.0; 
stroke:#840000; stroke-width:0; stroke-opacity:1; 
stroke-linecap:round; stroke-linejoin:round;fill-rule:evenodd;"
d="M 3776.11,5247.73
3781.84,5248.58
3787.47,5249.98
3792.92,5251.94
3798.16,5254.41
3803.13,5257.39
3807.79,5260.85
3812.08,5264.74
3815.97,5269.03
3819.42,5273.69
3822.4,5278.66
3824.88,5283.9
3826.83,5289.35
3828.24,5294.97
3829.09,5300.71
3829.38,5306.5
3829.38,5424.61
3829.09,5430.39
3828.24,5436.13
3826.83,5441.75
3824.88,5447.21
3822.4,5452.44
3819.42,5457.42
3815.97,5462.07
3812.08,5466.36
3807.79,5470.26
3803.13,5473.71
3798.16,5476.69
3792.92,5479.17
3787.47,5481.12
3781.84,5482.53
3776.11,5483.38
3770.32,5483.66
3120.72,5483.66
3114.93,5483.38
3109.19,5482.53
3103.57,5481.12
3098.12,5479.17
3092.88,5476.69
3087.91,5473.71
3083.25,5470.26
3078.96,5466.36
3075.07,5462.07
3071.61,5457.42
3068.63,5452.44
3066.16,5447.21
3064.2,5441.75
3062.8,5436.13
3061.95,5430.39
3061.66,5424.61
3061.66,5306.5
3061.95,5300.71
3062.8,5294.97
3064.2,5289.35
3066.16,5283.9
3068.63,5278.66
3071.61,5273.69
3075.07,5269.03
3078.96,5264.74
3083.25,5260.85
3087.91,5257.39
3092.88,5254.41
3098.12,5251.94
3103.57,5249.98
3109.19,5248.58
3114.93,5247.73
3120.72,5247.44
3770.32,5247.44
Z" /> 
<path style="fill:#840000; fill-opacity:1.0; 
stroke:#840000; stroke-width:0; stroke-opacity:1; 
stroke-linecap:round; stroke-linejoin:round;fill-rule:evenodd;"
d="M 3776.11,4747.73
3781.84,4748.58
3787.47,4749.98
3792.92,4751.94
3798.16,4754.41
3803.13,4757.39
3807.79,4760.85
3812.08,4764.74
3815.97,4769.03
3819.42,4773.69
3822.4,4778.66
3824.88,4783.9
3826.83,4789.35
3828.24,4794.97
3829.09,4800.71
3829.38,4806.5
3829.38,4924.61
3829.09,4930.39
3828.24,4936.13
3826.83,4941.75
3824.88,4947.21
3822.4,4952.44
3819.42,4957.42
3815.97,4962.07
3812.08,4966.36
3807.79,4970.26
3803.13,4973.71
3798.16,4976.69
3792.92,4979.17
3787.47,4981.12
3781.84,4982.53
3776.11,4983.38
3770.32,4983.66
3120.72,4983.66
3114.93,4983.38
3109.19,4982.53
3103.57,4981.12
3098.12,4979.17
3092.88,4976.69
3087.91,4973.71
3083.25,4970.26
3078.96,4966.36
3075.07,4962.07
3071.61,4957.42
3068.63,4952.44
3066.16,4947.21
3064.2,4941.75
3062.8,4936.13
3061.95,4930.39
3061.66,4924.61
3061.66,4806.5
3061.95,4800.71
3062.8,4794.97
3064.2,4789.35
3066.16,4783.9
3068.63,4778.66
3071.61,4773.69
3075.07,4769.03
3078.96,4764.74
3083.25,4760.85
3087.91,4757.39
3092.88,4754.41
3098.12,4751.94
3103.57,4749.98
3109.19,4748.58
3114.93,4747.73
3120.72,4747.44
3770.32,4747.44
Z" /> 
<path style="fill:#840000; fill-opacity:1.0; 
stroke:#840000; stroke-width:0; stroke-opacity:1; 
stroke-linecap:round; stroke-linejoin:round;fill-rule:evenodd;"
d="M 3776.11,4247.73
3781.84,4248.58
3787.47,4249.98
3792.92,4251.94
3798.16,4254.41
3803.13,4257.39
3807.79,4260.85
3812.08,4264.74
3815.97,4269.03
3819.42,4273.69
3822.4,4278.66
3824.88,4283.9
3826.83,4289.35
3828.24,4294.97
3829.09,4300.71
3829.38,4306.5
3829.38,4424.61
3829.09,4430.39
3828.24,4436.13
3826.83,4441.75
3824.88,4447.21
3822.4,4452.44
3819.42,4457.42
3815.97,4462.07
3812.08,4466.36
3807.79,4470.26
3803.13,4473.71
3798.16,4476.69
3792.92,4479.17
3787.47,4481.12
3781.84,4482.53
3776.11,4483.38
3770.32,4483.66
3120.72,4483.66
3114.93,4483.38
3109.19,4482.53
3103.57,4481.12
3098.12,4479.17
3092.88,4476.69
3087.91,4473.71
3083.25,4470.26
3078.96,4466.36
3075.07,4462.07
3071.61,4457.42
3068.63,4452.44
3066.16,4447.21
3064.2,4441.75
3062.8,4436.13
3061.95,4430.39
3061.66,4424.61
3061.66,4306.5
3061.95,4300.71
3062.8,4294.97
3064.2,4289.35
3066.16,4283.9
3068.63,4278.66
3071.61,4273.69
3075.07,4269.03
3078.96,4264.74
3083.25,4260.85
3087.91,4257.39
3092.88,4254.41
3098.12,4251.94
3103.57,4249.98
3109.19,4248.58
3114.93,4247.73
3120.72,4247.44
3770.32,4247.44
Z" /> 
<path style="fill:#840000; fill-opacity:1.0; 
stroke:#840000; stroke-width:0; stroke-opacity:1; 
stroke-linecap:round; stroke-linejoin:round;fill-rule:evenodd;"
d="M 3776.11,3747.73
3781.84,3748.58
3787.47,3749.98
3792.92,3751.94
3798.16,3754.41
3803.13,3757.39
3807.79,3760.85
3812.08,3764.74
3815.97,3769.03
3819.42,3773.69
3822.4,3778.66
3824.88,3783.9
3826.83,3789.35
3828.24,3794.97
3829.09,3800.71
3829.38,3806.5
3829.38,3924.61
3829.09,3930.39
3828.24,3936.13
3826.83,3941.75
3824.88,3947.21
3822.4,3952.44
3819.42,3957.42
3815.97,3962.07
3812.08,3966.36
3807.79,3970.26
3803.13,3973.71
3798.16,3976.69
3792.92,3979.17
3787.47,3981.12
3781.84,3982.53
3776.11,3983.38
3770.32,3983.66
3120.72,3983.66
3114.93,3983.38
3109.19,3982.53
3103.57,3981.12
3098.12,3979.17
3092.88,3976.69
3087.91,3973.71
3083.25,3970.26
3078.96,3966.36
3075.07,3962.07
3071.61,3957.42
3068.63,3952.44
3066.16,3947.21
3064.2,3941.75
3062.8,3936.13
3061.95,3930.39
3061.66,3924.61
3061.66,3806.5
3061.95,3800.71
3062.8,3794.97
3064.2,3789.35
3066.16,3783.9
3068.63,3778.66
3071.61,3773.69
3075.07,3769.03
3078.96,3764.74
3083.25,3760.85
3087.91,3757.39
3092.88,3754.41
3098.12,3751.94
3103.57,3749.98
3109.19,3748.58
3114.93,3747.73
3120.72,3747.44
3770.32,3747.44
Z" /> 
<path style="fill:#840000; fill-opacity:1.0; 
stroke:#840000; stroke-width:0; stroke-opacity:1; 
stroke-linecap:round; stroke-linejoin:round;fill-rule:evenodd;"
d="M 3776.11,3247.73
3781.84,3248.58
3787.47,3249.98
3792.92,3251.94
3798.16,3254.41
3803.13,3257.39
3807.79,3260.85
3812.08,3264.74
3815.97,3269.03
3819.42,3273.69
3822.4,3278.66
3824.88,3283.9
3826.83,3289.35
3828.24,3294.97
3829.09,3300.71
3829.38,3306.5
3829.38,3424.61
3829.09,3430.39
3828.24,3436.13
3826.83,3441.75
3824.88,3447.21
3822.4,3452.44
3819.42,3457.42
3815.97,3462.07
3812.08,3466.36
3807.79,3470.26
3803.13,3473.71
3798.16,3476.69
3792.92,3479.17
3787.47,3481.12
3781.84,3482.53
3776.11,3483.38
3770.32,3483.66
3120.72,3483.66
3114.93,3483.38
3109.19,3482.53
3103.57,3481.12
3098.12,3479.17
3092.88,3476.69
3087.91,3473.71
3083.25,3470.26
3078.96,3466.36
3075.07,3462.07
3071.61,3457.42
3068.63,3452.44
3066.16,3447.21
3064.2,3441.75
3062.8,3436.13
3061.95,3430.39
3061.66,3424.61
3061.66,3306.5
3061.95,3300.71
3062.8,3294.97
3064.2,3289.35
3066.16,3283.9
3068.63,3278.66
3071.61,3273.69
3075.07,3269.03
3078.96,3264.74
3083.25,3260.85
3087.91,3257.39
3092.88,3254.41
3098.12,3251.94
3103.57,3249.98
3109.19,3248.58
3114.93,3247.73
3120.72,3247.44
3770.32,3247.44
Z" /> 
<path style="fill:#840000; fill-opacity:1.0; 
stroke:#840000; stroke-width:0; stroke-opacity:1; 
stroke-linecap:round; stroke-linejoin:round;fill-rule:evenodd;"
d="M 3776.11,2747.73
3781.84,2748.58
3787.47,2749.98
3792.92,2751.94
3798.16,2754.41
3803.13,2757.39
3807.79,2760.85
3812.08,2764.74
3815.97,2769.03
3819.42,2773.69
3822.4,2778.66
3824.88,2783.9
3826.83,2789.35
3828.24,2794.97
3829.09,2800.71
3829.38,2806.5
3829.38,2924.61
3829.09,2930.39
3828.24,2936.13
3826.83,2941.75
3824.88,2947.21
3822.4,2952.44
3819.42,2957.42
3815.97,2962.07
3812.08,2966.36
3807.79,2970.26
3803.13,2973.71
3798.16,2976.69
3792.92,2979.17
3787.47,2981.12
3781.84,2982.53
3776.11,2983.38
3770.32,2983.66
3120.72,2983.66
3114.93,2983.38
3109.19,2982.53
3103.57,2981.12
3098.12,2979.17
3092.88,2976.69
3087.91,2973.71
3083.25,2970.26
3078.96,2966.36
3075.07,2962.07
3071.61,2957.42
3068.63,2952.44
3066.16,2947.21
3064.2,2941.75
3062.8,2936.13
3061.95,2930.39
3061.66,2924.61
3061.66,2806.5
3061.95,2800.71
3062.8,2794.97
3064.2,2789.35
3066.16,2783.9
3068.63,2778.66
3071.61,2773.69
3075.07,2769.03
3078.96,2764.74
3083.25,2760.85
3087.91,2757.39
3092.88,2754.41
3098.12,2751.94
3103.57,2749.98
3109.19,2748.58
3114.93,2747.73
3120.72,2747.44
3770.32,2747.44
Z" /> 
</g>
<g >
</g>
<g >
</g>
<g >
</g>
<g >
</g>
<g >
</g>
</g>
<g style="fill:#000000; fill-opacity:1.0; 
stroke:#000000; stroke-width:0; stroke-opacity:1; 
stroke-linecap:round; stroke-linejoin:round;">
</g>
<g style="fill:#008484; fill-opacity:1.0; 
stroke:#008484; stroke-width:0; stroke-opacity:1; 
stroke-linecap:round; stroke-linejoin:round;">
</g>
<g style="fill:#008484; fill-opacity:1.0; 
stroke:#008484; stroke-width:47.2441; stroke-opacity:1; 
stroke-linecap:round; stroke-linejoin:round;">
</g>
<g style="fill:#008484; fill-opacity:0.0; 
stroke:#008484; stroke-width:47.2441; stroke-opacity:1; 
stroke-linecap:round; stroke-linejoin:round;">
<path d="M4419 6607
L5187 6607
" />
<path d="M4419 6607
L3652 6607
" />
<path d="M4419 2623
L5187 2623
" />
<path d="M4419 2623
L3061 2623
" />
<path d="M6296 8739
L7343 8739
" />
<path d="M6296 1715
L6296 8739
" />
<path d="M7343 1715
L7343 8739
" />
<path d="M6296 1715
L7343 1715
" />
<path d="M6296 1215
L6296 691
" />
<path d="M6296 691
L6819 691
" />
<path d="M1296 8739
L2343 8739
" />
<path d="M1296 1715
L1296 8739
" />
<path d="M2343 1715
L2343 8739
" />
<path d="M1296 1715
L2343 1715
" />
<path d="M1296 1215
L1296 691
" />
<path d="M1296 691
L1819 691
" />
<g >
</g>
</g>
<g style="fill:#000000; fill-opacity:0.0; 
stroke:#000000; stroke-width:47.2441; stroke-opacity:1; 
stroke-linecap:round; stroke-linejoin:round;">
<g >
</g>
<g >
</g>
<g >
</g>
<g >
</g>
<g >
</g>
<g >
</g>
</g>
<g style="fill:#000000; fill-opacity:0.0; 
stroke:#000000; stroke-width:47.2441; stroke-opacity:1; 
stroke-linecap:round; stroke-linejoin:round;">
</g>
<g style="fill:#C2C2C2; fill-opacity:0.0; 
stroke:#C2C2C2; stroke-width:47.2441; stroke-opacity:1; 
stroke-linecap:round; stroke-linejoin:round;">
</g>
<g style="fill:#C2C2C2; fill-opacity:0.0; 
stroke:#C2C2C2; stroke-width:19.685; stroke-opacity:1; 
stroke-linecap:round; stroke-linejoin:round;">
<path d="M2963 2568
L2963 6662
" />
<path d="M2963 6662
L5876 6662
" />
<path d="M5876 6662
L5876 2568
" />
<path d="M5876 2568
L2963 2568
" />
<path d="M6111 506
L6111 8912
" />
<path d="M6111 8912
L7528 8912
" />
<path d="M7528 8912
L7528 506
" />
<path d="M7528 506
L6111 506
" />
<path d="M1111 506
L1111 8912
" />
<path d="M1111 8912
L2528 8912
" />
<path d="M2528 8912
L2528 506
" />
<path d="M2528 506
L1111 506
" />
<g >
</g>
<g >
</g>
<g >
</g>
<g >
</g>
</g>
<g style="fill:#000000; fill-opacity:0.0; 
stroke:#000000; stroke-width:19.685; stroke-opacity:1; 
stroke-linecap:round; stroke-linejoin:round;">
<g >
</g>
<g >
</g>
<g >
</g>
<g >
</g>
</g>
<g style="fill:#000000; fill-opacity:0.0; 
stroke:#000000; stroke-width:19.685; stroke-opacity:1; 
stroke-linecap:round; stroke-linejoin:round;">
<g >
</g>
<g >
</g>
<g >
</g>
<g >
</g>
</g>
<g style="fill:#000000; fill-opacity:0.0; 
stroke:#000000; stroke-width:19.685; stroke-opacity:1; 
stroke-linecap:round; stroke-linejoin:round;">
<g >
</g>
<g >
</g>
<g >
</g>
<g >
</g>
</g>
<g style="fill:#000000; fill-opacity:0.0; 
stroke:#000000; stroke-width:19.685; stroke-opacity:1; 
stroke-linecap:round; stroke-linejoin:round;">
<g >
</g>
<g >
</g>
<g >
</g>
<g >
</g>
</g>
<g style="fill:#000000; fill-opacity:0.0; 
stroke:#000000; stroke-width:19.685; stroke-opacity:1; 
stroke-linecap:round; stroke-linejoin:round;">
</g>
<g style="fill:#C2C200; fill-opacity:0.0; 
stroke:#C2C200; stroke-width:19.685; stroke-opacity:1; 
stroke-linecap:round; stroke-linejoin:round;">
<path d="M819 215
L7819 215
" />
<path d="M819 9215
L819 215
" />
<path d="M7819 9215
L819 9215
" />
<path d="M7819 215
L7819 9215
" />
<g >
</g>
<g >
</g>
<g >
</g>
<g >
</g>
</g> 
</svg>
